<svg width="327" height="246" viewBox="0 0 327 246" fill="none" xmlns="http://www.w3.org/2000/svg">
<rect y="16" width="327" height="1" fill="#CCCCCC"/>
<rect width="327" height="40" transform="translate(0 17)" fill="#EBEBEB"/>
<path d="M48.8409 36.452H47.2449C47.5449 34.904 47.5449 33.764 47.5449 32.756V31.82H40.3209V32.612H46.5849V32.756C46.5849 33.764 46.5849 34.904 46.2489 36.452H39.1089V37.256H43.4529V41.9H44.4489V37.256H48.8409V36.452ZM57.624 34.988H52.392V33.596H57.624V34.988ZM58.596 31.46H57.624V32.84H52.392V31.46H51.42V35.768H58.596V31.46ZM52.332 38.72H51.36V41.648H58.8V40.844H52.332V38.72ZM50.112 36.812V37.604H54.588V39.692H55.572V37.604H59.892V36.812H50.112Z" fill="#5C5C5C"/>
<rect x="99" y="17" width="1" height="40" fill="#CCCCCC"/>
<path d="M203.961 32.336H201.273V31.028H200.289V32.336H197.613V33.128H203.961V32.336ZM199.149 35.564C199.149 34.868 199.797 34.412 200.781 34.412C201.765 34.412 202.425 34.868 202.425 35.564C202.425 36.272 201.765 36.728 200.781 36.728C199.797 36.728 199.149 36.272 199.149 35.564ZM203.361 35.564C203.361 34.412 202.317 33.668 200.781 33.668C199.245 33.668 198.213 34.412 198.213 35.564C198.213 36.728 199.245 37.472 200.781 37.472C202.317 37.472 203.361 36.728 203.361 35.564ZM202.557 41.12C200.985 41.12 200.025 40.712 200.025 40.016C200.025 39.32 200.985 38.912 202.557 38.912C204.129 38.912 205.089 39.32 205.089 40.016C205.089 40.712 204.129 41.12 202.557 41.12ZM202.557 38.156C200.385 38.156 199.053 38.828 199.053 40.016C199.053 41.192 200.385 41.876 202.557 41.876C204.717 41.876 206.061 41.192 206.061 40.016C206.061 38.828 204.717 38.156 202.557 38.156ZM205.929 34.112V31.124H204.945V38.048H205.929V34.928H207.513V34.112H205.929ZM209.696 39.284H216.164V41.9H217.148V38.492H209.696V39.284ZM210.824 32.348H216.128V34.436H210.824V32.348ZM213.98 36.584V35.216H217.1V31.568H209.864V35.216H212.996V36.584H208.604V37.376H218.348V36.584H213.98ZM224.096 35.936H221.12V32.732H224.096V35.936ZM227.528 33.668V35H225.056V33.668H227.528ZM225.056 35.792H227.528V37.496H228.524V31.136H227.528V32.876H225.056V31.94H220.148V36.716H225.056V35.792ZM224.96 41.108C223.352 41.108 222.368 40.64 222.368 39.848C222.368 39.056 223.352 38.588 224.96 38.588C226.592 38.588 227.576 39.056 227.576 39.848C227.576 40.64 226.592 41.108 224.96 41.108ZM224.96 37.82C222.752 37.82 221.384 38.552 221.384 39.848C221.384 41.132 222.752 41.876 224.96 41.876C227.18 41.876 228.56 41.132 228.56 39.848C228.56 38.552 227.18 37.82 224.96 37.82Z" fill="#5C5C5C"/>
<rect y="57" width="327" height="1" fill="#CCCCCC"/>
<path d="M31.2139 78.188H33.1339V77.384H28.2259V78.188H30.2659V79.16C30.2659 81.14 29.4259 83.096 27.9259 83.996L28.5259 84.728C29.5939 84.056 30.3739 82.796 30.7459 81.32C31.1179 82.688 31.8619 83.84 32.9059 84.464L33.5059 83.744C32.0179 82.904 31.2139 81.032 31.2139 79.16V78.188ZM34.0939 79.988H32.3179V80.792H34.0939V86.324H35.0299V76.364H34.0939V79.988ZM36.2539 76.112V86.876H37.2019V76.112H36.2539ZM46.6209 77.588C46.6209 78.428 46.6209 79.22 46.3329 80.324L47.2929 80.432C47.5929 79.328 47.5929 78.452 47.5929 77.588V76.676H40.2609V77.468H46.6209V77.588ZM43.9209 86.108C42.2409 86.108 41.1609 85.652 41.1609 84.908C41.1609 84.14 42.2409 83.684 43.9209 83.684C45.6129 83.684 46.6929 84.14 46.6929 84.908C46.6929 85.652 45.6129 86.108 43.9209 86.108ZM43.9209 82.928C41.6289 82.928 40.1769 83.66 40.1769 84.908C40.1769 86.132 41.6289 86.876 43.9209 86.876C46.2129 86.876 47.6769 86.132 47.6769 84.908C47.6769 83.66 46.2129 82.928 43.9209 82.928ZM44.0769 81.14V79.076H43.0929V81.14H39.1209V81.932H48.8049V81.14H44.0769ZM51.216 84.284H57.684V86.9H58.668V83.492H51.216V84.284ZM52.344 77.348H57.648V79.436H52.344V77.348ZM55.5 81.584V80.216H58.62V76.568H51.384V80.216H54.516V81.584H50.124V82.376H59.868V81.584H55.5ZM67.5231 81.38C65.9631 80.828 64.9071 79.472 64.9071 78.092V77.66H67.2711V76.856H61.5231V77.66H63.9231V78.092C63.9231 79.616 62.8071 81.056 61.2111 81.62L61.7271 82.4C62.9871 81.932 63.9711 80.948 64.4271 79.712C64.9071 80.828 65.8311 81.716 67.0311 82.148L67.5231 81.38ZM62.8431 83.948H69.0471V86.9H70.0431V83.156H62.8431V83.948ZM69.0471 76.124V78.932H66.9471V79.736H69.0471V82.568H70.0431V76.124H69.0471Z" fill="#5C5C5C"/>
<rect x="99" y="58" width="1" height="48" fill="#CCCCCC"/>
<path d="M116.25 70.7163C117.201 70.7163 117.985 69.9375 117.985 68.9814C117.985 68.0308 117.201 67.252 116.25 67.252C115.299 67.252 114.515 68.0308 114.515 68.9814C114.515 69.9375 115.299 70.7163 116.25 70.7163ZM125.666 64.014V64.74H129.373C129.186 67.083 127.866 68.975 125.215 70.24L125.699 70.977C128.977 69.371 130.286 66.863 130.286 64.014H125.666ZM132.277 62.947V72.814H133.179V62.947H132.277ZM136.082 67.325C137.677 67.083 139.129 66.291 139.668 65.147C140.207 66.291 141.659 67.083 143.254 67.325L143.595 66.599C141.846 66.368 140.251 65.389 140.251 64.179V64.157H143.32V63.431H136.016V64.157H139.085V64.179C139.085 65.389 137.49 66.368 135.741 66.599L136.082 67.325ZM137.248 69.811H136.346V72.594H143.133V71.857H137.248V69.811ZM140.108 68.271V66.632H139.206V68.271H135.191V69.008H144.156V68.271H140.108ZM149.503 66.148H154.541V67.963H149.503V66.148ZM152.473 70.812V68.689H155.421V63.651H154.541V65.411H149.503V63.651H148.612V68.689H151.56V70.812H147.556V71.549H156.499V70.812H152.473ZM163.406 63.981H160.997V62.848H160.095V63.981H157.686V64.707H163.406V63.981ZM159.116 66.973C159.116 66.335 159.71 65.895 160.546 65.895C161.382 65.895 161.976 66.335 161.976 66.973C161.976 67.611 161.382 68.051 160.546 68.051C159.71 68.051 159.116 67.611 159.116 66.973ZM162.823 66.973C162.823 65.917 161.877 65.213 160.546 65.213C159.204 65.213 158.258 65.917 158.258 66.973C158.258 68.029 159.204 68.722 160.546 68.722C161.877 68.722 162.823 68.029 162.823 66.973ZM160.271 70.163H164.924V71.956H160.271V70.163ZM159.391 72.682H165.804V69.448H159.391V72.682ZM164.891 62.958V65.95H163.252V66.687H164.891V68.92H165.804V62.958H164.891ZM173.063 65.51V66.247H175.01V68.832H175.923V62.958H175.01V65.51H173.063ZM173.613 67.754C172.183 67.248 171.215 66.005 171.215 64.74V64.399H173.382V63.673H168.113V64.399H170.313V64.74C170.313 66.159 169.301 67.49 167.827 68.029L168.3 68.744C169.455 68.304 170.368 67.38 170.786 66.236C171.215 67.248 172.062 68.062 173.162 68.458L173.613 67.754ZM172.667 72.11C171.182 72.11 170.28 71.692 170.28 70.977C170.28 70.262 171.182 69.833 172.667 69.833C174.152 69.833 175.054 70.262 175.054 70.977C175.054 71.692 174.152 72.11 172.667 72.11ZM172.667 69.14C170.643 69.14 169.378 69.811 169.378 70.977C169.378 72.143 170.643 72.814 172.667 72.814C174.691 72.814 175.956 72.143 175.956 70.977C175.956 69.811 174.691 69.14 172.667 69.14ZM179.86 66.148H184.898V67.963H179.86V66.148ZM182.83 70.812V68.689H185.778V63.651H184.898V65.411H179.86V63.651H178.969V68.689H181.917V70.812H177.913V71.549H186.856V70.812H182.83ZM191.081 68.766C192.566 68.447 194.117 67.468 194.744 66.104C195.371 67.457 196.933 68.425 198.44 68.722L198.803 67.996C197.087 67.721 195.206 66.368 195.206 64.795V64.586H198.473V63.849H191.004V64.586H194.271V64.795C194.271 66.368 192.401 67.743 190.696 68.029L191.081 68.766ZM195.195 70.801V68.414H194.293V70.801H190.267V71.549H199.221V70.801H195.195ZM206.645 64.157H204.104V62.947H203.202V64.157H200.65V64.883H206.645V64.157ZM202.135 67.27C202.135 66.577 202.751 66.137 203.653 66.137C204.544 66.137 205.16 66.577 205.16 67.27C205.16 67.952 204.544 68.392 203.653 68.392C202.751 68.392 202.135 67.952 202.135 67.27ZM204.104 69.074C205.27 68.931 206.018 68.249 206.018 67.27C206.018 66.159 205.061 65.444 203.653 65.444C202.245 65.444 201.277 66.159 201.277 67.27C201.277 68.26 202.036 68.942 203.202 69.085V70.141C202.223 70.174 201.277 70.185 200.441 70.185L200.573 70.944C202.388 70.944 204.764 70.911 206.964 70.548L206.898 69.877C205.996 69.998 205.039 70.064 204.104 70.108V69.074ZM207.525 62.947V72.814H208.427V62.947H207.525ZM220.824 62.947H219.922V68.612H220.824V62.947ZM216.985 66.896H214.136V64.3H216.985V66.896ZM217.865 63.585H213.256V67.622H217.865V63.585ZM221.055 69.976V69.283H218.162V68.326H217.249V69.283H214.356V69.976H217.238C217.227 70.955 215.654 71.89 213.971 72.088L214.268 72.781C215.753 72.572 217.117 71.912 217.711 70.977C218.294 71.89 219.614 72.572 221.099 72.781L221.407 72.088C219.713 71.879 218.184 70.922 218.173 69.976H221.055ZM226.413 64.641H230.098V63.893H225.511V70.372H226.292C228.151 70.372 229.449 70.306 230.956 70.02L230.857 69.272C229.427 69.525 228.162 69.602 226.413 69.602V64.641ZM234.311 66.841H232.683V62.947H231.781V72.836H232.683V67.589H234.311V66.841ZM242.384 62.947V72.836H243.286V62.947H242.384ZM238.083 63.706C236.62 63.706 235.575 65.048 235.575 67.149C235.575 69.25 236.62 70.592 238.083 70.592C239.546 70.592 240.591 69.25 240.591 67.149C240.591 65.048 239.546 63.706 238.083 63.706ZM238.083 64.52C239.04 64.52 239.722 65.554 239.722 67.149C239.722 68.755 239.04 69.789 238.083 69.789C237.115 69.789 236.433 68.755 236.433 67.149C236.433 65.554 237.115 64.52 238.083 64.52ZM250.853 69.03H251.711V63.134H250.853V65.477H249.643V66.214H250.853V69.03ZM250.006 67.622C248.873 67.853 247.916 67.897 246.651 67.908V66.445H249.258V63.695H245.76V64.421H248.389V65.763H245.782V68.634H246.42C247.828 68.634 248.862 68.579 250.105 68.337L250.006 67.622ZM247.058 70.317H252.756V72.825H253.658V69.591H247.058V70.317ZM252.789 62.958V69.096H253.658V62.958H252.789ZM263.37 68.271H257.507V66.709H263.051V65.994H257.507V64.531H263.271V63.805H256.594V68.997H263.37V68.271ZM255.439 70.801V71.538H264.393V70.801H255.439ZM269.751 66.148H274.789V67.963H269.751V66.148ZM272.721 70.812V68.689H275.669V63.651H274.789V65.411H269.751V63.651H268.86V68.689H271.808V70.812H267.804V71.549H276.747V70.812H272.721ZM283.654 63.981H281.245V62.848H280.343V63.981H277.934V64.707H283.654V63.981ZM279.364 66.973C279.364 66.335 279.958 65.895 280.794 65.895C281.63 65.895 282.224 66.335 282.224 66.973C282.224 67.611 281.63 68.051 280.794 68.051C279.958 68.051 279.364 67.611 279.364 66.973ZM283.071 66.973C283.071 65.917 282.125 65.213 280.794 65.213C279.452 65.213 278.506 65.917 278.506 66.973C278.506 68.029 279.452 68.722 280.794 68.722C282.125 68.722 283.071 68.029 283.071 66.973ZM280.519 70.163H285.172V71.956H280.519V70.163ZM279.639 72.682H286.052V69.448H279.639V72.682ZM285.139 62.958V65.95H283.5V66.687H285.139V68.92H286.052V62.958H285.139ZM293.74 67.589C292.321 67.105 291.353 65.873 291.353 64.542V63.453H290.451V64.465C290.451 65.972 289.494 67.314 287.998 67.853L288.471 68.568C289.626 68.128 290.506 67.226 290.913 66.071C291.353 67.083 292.2 67.897 293.267 68.293L293.74 67.589ZM292.563 72.099C291.1 72.099 290.209 71.692 290.209 71.01C290.209 70.317 291.1 69.91 292.563 69.91C294.015 69.91 294.906 70.317 294.906 71.01C294.906 71.692 294.015 72.099 292.563 72.099ZM292.563 69.206C290.55 69.206 289.307 69.855 289.307 71.01C289.307 72.154 290.55 72.803 292.563 72.803C294.565 72.803 295.808 72.154 295.808 71.01C295.808 69.855 294.565 69.206 292.563 69.206ZM295.698 65.499V62.958H294.796V68.931H295.698V66.247H297.161V65.499H295.698ZM303.837 66.06H301.384V63.992H303.837V66.06ZM300.482 66.06H299.03V66.786H306.191V66.06H304.739V63.992H306.235V63.266H298.997V63.992H300.482V66.06ZM305.113 71.956H300.141V70.317H305.113V71.956ZM307.082 68.447V67.721H298.161V68.447H302.176V69.602H299.261V72.682H305.993V69.602H303.078V68.447H307.082ZM126.15 80.071C126.15 79.103 126.876 78.421 127.844 78.421C128.812 78.421 129.538 79.103 129.538 80.071C129.538 81.039 128.812 81.721 127.844 81.721C126.876 81.721 126.15 81.039 126.15 80.071ZM130.418 80.071C130.418 78.641 129.318 77.64 127.844 77.64C126.37 77.64 125.27 78.641 125.27 80.071C125.27 81.501 126.37 82.502 127.844 82.502C129.318 82.502 130.418 81.501 130.418 80.071ZM127.503 83.47H126.601V86.594H133.179V85.857H127.503V83.47ZM132.739 79.95V76.947H131.837V84.207H132.739V80.698H134.191V79.95H132.739ZM136.588 78.146H135.686V84.251H136.313C137.38 84.251 138.513 84.196 139.844 83.943L139.756 83.162C138.579 83.393 137.534 83.459 136.588 83.47V78.146ZM142.704 76.947V80.962H141.307V77.167H140.46V86.308H141.307V81.71H142.704V86.803H143.573V76.947H142.704ZM116.25 98.7163C117.201 98.7163 117.985 97.9375 117.985 96.9814C117.985 96.0308 117.201 95.252 116.25 95.252C115.299 95.252 114.515 96.0308 114.515 96.9814C114.515 97.9375 115.299 98.7163 116.25 98.7163ZM126.403 92.641H130.088V91.893H125.501V98.372H126.282C128.141 98.372 129.439 98.306 130.946 98.02L130.847 97.272C129.417 97.525 128.152 97.602 126.403 97.602V92.641ZM134.301 94.841H132.673V90.947H131.771V100.836H132.673V95.589H134.301V94.841ZM142.374 90.947V100.836H143.276V90.947H142.374ZM138.073 91.706C136.61 91.706 135.565 93.048 135.565 95.149C135.565 97.25 136.61 98.592 138.073 98.592C139.536 98.592 140.581 97.25 140.581 95.149C140.581 93.048 139.536 91.706 138.073 91.706ZM138.073 92.52C139.03 92.52 139.712 93.554 139.712 95.149C139.712 96.755 139.03 97.789 138.073 97.789C137.105 97.789 136.423 96.755 136.423 95.149C136.423 93.554 137.105 92.52 138.073 92.52ZM150.843 97.03H151.701V91.134H150.843V93.477H149.633V94.214H150.843V97.03ZM149.996 95.622C148.863 95.853 147.906 95.897 146.641 95.908V94.445H149.248V91.695H145.75V92.421H148.379V93.763H145.772V96.634H146.41C147.818 96.634 148.852 96.579 150.095 96.337L149.996 95.622ZM147.048 98.317H152.746V100.825H153.648V97.591H147.048V98.317ZM152.779 90.958V97.096H153.648V90.958H152.779ZM163.36 96.271H157.497V94.709H163.041V93.994H157.497V92.531H163.261V91.805H156.584V96.997H163.36V96.271ZM155.429 98.801V99.538H164.383V98.801H155.429ZM167.507 94.148H172.545V95.963H167.507V94.148ZM170.477 98.812V96.689H173.425V91.651H172.545V93.411H167.507V91.651H166.616V96.689H169.564V98.812H165.56V99.549H174.503V98.812H170.477ZM181.41 91.981H179.001V90.848H178.099V91.981H175.69V92.707H181.41V91.981ZM177.12 94.973C177.12 94.335 177.714 93.895 178.55 93.895C179.386 93.895 179.98 94.335 179.98 94.973C179.98 95.611 179.386 96.051 178.55 96.051C177.714 96.051 177.12 95.611 177.12 94.973ZM180.827 94.973C180.827 93.917 179.881 93.213 178.55 93.213C177.208 93.213 176.262 93.917 176.262 94.973C176.262 96.029 177.208 96.722 178.55 96.722C179.881 96.722 180.827 96.029 180.827 94.973ZM178.275 98.163H182.928V99.956H178.275V98.163ZM177.395 100.682H183.808V97.448H177.395V100.682ZM182.895 90.958V93.95H181.256V94.687H182.895V96.92H183.808V90.958H182.895ZM191.496 95.589C190.077 95.105 189.109 93.873 189.109 92.542V91.453H188.207V92.465C188.207 93.972 187.25 95.314 185.754 95.853L186.227 96.568C187.382 96.128 188.262 95.226 188.669 94.071C189.109 95.083 189.956 95.897 191.023 96.293L191.496 95.589ZM190.319 100.099C188.856 100.099 187.965 99.692 187.965 99.01C187.965 98.317 188.856 97.91 190.319 97.91C191.771 97.91 192.662 98.317 192.662 99.01C192.662 99.692 191.771 100.099 190.319 100.099ZM190.319 97.206C188.306 97.206 187.063 97.855 187.063 99.01C187.063 100.154 188.306 100.803 190.319 100.803C192.321 100.803 193.564 100.154 193.564 99.01C193.564 97.855 192.321 97.206 190.319 97.206ZM193.454 93.499V90.958H192.552V96.931H193.454V94.247H194.917V93.499H193.454ZM201.593 94.06H199.14V91.992H201.593V94.06ZM198.238 94.06H196.786V94.786H203.947V94.06H202.495V91.992H203.991V91.266H196.753V91.992H198.238V94.06ZM202.869 99.956H197.897V98.317H202.869V99.956ZM204.838 96.447V95.721H195.917V96.447H199.932V97.602H197.017V100.682H203.749V97.602H200.834V96.447H204.838ZM209.162 96.161C210.691 95.93 212.11 95.171 212.737 94.104C213.364 95.171 214.772 95.93 216.301 96.161L216.62 95.435C214.86 95.193 213.188 94.104 213.188 92.894H216.334V92.168H213.188V90.947H212.286V92.168H209.139V92.894H212.275C212.275 94.115 210.614 95.193 208.832 95.435L209.162 96.161ZM217.203 96.909H208.282V97.646H212.286V100.825H213.188V97.646H217.203V96.909ZM223.615 93.983V94.731H225.606V98.317H226.519V90.958H225.606V93.983H223.615ZM224.22 96.216C222.757 95.754 221.756 94.61 221.756 93.301V92.993H223.934V92.267H221.756V91.002H220.854V92.267H218.665V92.993H220.854V93.301C220.854 94.676 219.875 95.908 218.412 96.403L218.863 97.107C220.018 96.7 220.898 95.864 221.316 94.775C221.767 95.776 222.647 96.557 223.78 96.931L224.22 96.216ZM221.118 99.857V97.657H220.205V100.594H226.794V99.857H221.118ZM238.828 90.947H237.926V96.612H238.828V90.947ZM234.989 94.896H232.14V92.3H234.989V94.896ZM235.869 91.585H231.26V95.622H235.869V91.585ZM239.059 97.976V97.283H236.166V96.326H235.253V97.283H232.36V97.976H235.242C235.231 98.955 233.658 99.89 231.975 100.088L232.272 100.781C233.757 100.572 235.121 99.912 235.715 98.977C236.298 99.89 237.618 100.572 239.103 100.781L239.411 100.088C237.717 99.879 236.188 98.922 236.177 97.976H239.059ZM243.625 92.003V92.751H247.244C247.035 95.083 245.682 96.975 243.163 98.24L243.658 98.944C246.848 97.349 248.135 94.808 248.135 92.003H243.625ZM252.271 94.951H250.687V90.947H249.785V100.814H250.687V95.699H252.271V94.951ZM260.41 90.958V96.249H261.312V90.958H260.41ZM254.954 96.733V100.682H261.312V96.733H260.421V97.943H255.845V96.733H254.954ZM255.845 98.647H260.421V99.956H255.845V98.647ZM256.01 91.42C254.525 91.42 253.447 92.344 253.447 93.686C253.447 95.05 254.525 95.963 256.01 95.963C257.506 95.963 258.595 95.05 258.595 93.686C258.595 92.344 257.506 91.42 256.01 91.42ZM256.01 92.168C257.011 92.168 257.715 92.795 257.715 93.686C257.715 94.588 257.011 95.215 256.01 95.215C255.031 95.215 254.327 94.588 254.327 93.686C254.327 92.795 255.031 92.168 256.01 92.168Z" fill="#5C5C5C"/>
<rect y="106" width="327" height="1" fill="#CCCCCC"/>
<path d="M24.4756 123.188H26.3956V122.384H21.4876V123.188H23.5276V124.16C23.5276 126.14 22.6876 128.096 21.1876 128.996L21.7876 129.728C22.8556 129.056 23.6356 127.796 24.0076 126.32C24.3796 127.688 25.1236 128.84 26.1676 129.464L26.7676 128.744C25.2796 127.904 24.4756 126.032 24.4756 124.16V123.188ZM27.3556 124.988H25.5796V125.792H27.3556V131.324H28.2916V121.364H27.3556V124.988ZM29.5156 121.112V131.876H30.4636V121.112H29.5156ZM39.8827 122.588C39.8827 123.428 39.8827 124.22 39.5947 125.324L40.5547 125.432C40.8547 124.328 40.8547 123.452 40.8547 122.588V121.676H33.5227V122.468H39.8827V122.588ZM37.1827 131.108C35.5027 131.108 34.4227 130.652 34.4227 129.908C34.4227 129.14 35.5027 128.684 37.1827 128.684C38.8747 128.684 39.9547 129.14 39.9547 129.908C39.9547 130.652 38.8747 131.108 37.1827 131.108ZM37.1827 127.928C34.8907 127.928 33.4387 128.66 33.4387 129.908C33.4387 131.132 34.8907 131.876 37.1827 131.876C39.4747 131.876 40.9387 131.132 40.9387 129.908C40.9387 128.66 39.4747 127.928 37.1827 127.928ZM37.3387 126.14V124.076H36.3547V126.14H32.3827V126.932H42.0667V126.14H37.3387ZM47.8617 125.948H44.8137V124.148H47.8617V125.948ZM48.8217 121.724H47.8617V123.368H44.8137V121.724H43.8417V126.74H48.8217V121.724ZM46.0137 128.804H51.8337V128.012H45.0297V131.732H52.0257V130.94H46.0137V128.804ZM51.7497 123.716V121.136H50.7657V127.424H51.7497V124.532H53.3457V123.716H51.7497ZM63.0648 124.364H56.7288V121.52H55.7448V125.168H63.0648V124.364ZM56.6568 128.48H55.6728V131.624H63.1248V130.82H56.6568V128.48ZM54.4248 126.608V127.4H64.1808V126.608H54.4248ZM76.1333 125.42C76.4093 124.172 76.4093 123.2 76.4093 122.396V121.64H69.0773V122.432H75.4373C75.4373 123.212 75.4373 124.1 75.1733 125.312L76.1333 125.42ZM73.2413 127.808H72.2453V128.288C72.2453 129.704 70.5893 130.796 68.6093 131.072L68.9813 131.84C70.6253 131.564 72.0893 130.808 72.7493 129.644C73.3853 130.808 74.8493 131.564 76.4933 131.84L76.8653 131.072C74.8973 130.796 73.2413 129.704 73.2413 128.288V127.808ZM72.8933 126.164V124.004H71.9093V126.164H67.9373V126.956H77.6333V126.164H72.8933Z" fill="#5C5C5C"/>
<rect x="99" y="107" width="1" height="40" fill="#CCCCCC"/>
<path d="M116.244 123.392C116.244 124.724 116.244 126.14 115.872 128.06L116.844 128.18C117.228 126.164 117.228 124.76 117.228 123.392V122.204H109.644V123.008H116.244V123.392ZM114.66 129.572V126.008H113.688V129.572H111.996V126.008H111.024V129.572H108.636V130.376H118.368V129.572H114.66ZM121.799 124.616H127.295V126.596H121.799V124.616ZM125.039 129.704V127.388H128.255V121.892H127.295V123.812H121.799V121.892H120.827V127.388H124.043V129.704H119.675V130.508H129.431V129.704H125.039ZM132.118 125.984H135.994V122.12H131.122V122.924H135.022V125.18H131.158V129.296H132.01C134.062 129.296 135.502 129.212 137.182 128.912L137.074 128.096C135.466 128.408 134.074 128.48 132.118 128.48V125.984ZM140.77 125.396H139.006V121.112H138.022V131.9H139.006V126.224H140.77V125.396ZM149.577 121.124V131.912H150.561V121.124H149.577ZM144.885 121.952C143.289 121.952 142.149 123.416 142.149 125.708C142.149 128 143.289 129.464 144.885 129.464C146.481 129.464 147.621 128 147.621 125.708C147.621 123.416 146.481 121.952 144.885 121.952ZM144.885 122.84C145.929 122.84 146.673 123.968 146.673 125.708C146.673 127.46 145.929 128.588 144.885 128.588C143.829 128.588 143.085 127.46 143.085 125.708C143.085 123.968 143.829 122.84 144.885 122.84ZM158.984 126.74H156.308V122.996H158.984V126.74ZM155.324 126.74H153.68V127.544H161.612V126.74H159.968V122.996H161.636V122.204H153.656V122.996H155.324V126.74ZM152.792 129.692V130.508H162.548V129.692H152.792ZM170.023 124.268H167.347V122.216H170.023V124.268ZM166.363 124.268H164.767V125.024H172.591V124.268H171.007V122.216H172.627V121.46H164.731V122.216H166.363V124.268ZM165.991 130.016H172.315V127.652H164.995V128.384H171.343V129.308H165.031V131.768H172.639V131.024H165.991V130.016ZM163.819 125.924V126.704H173.563V125.924H163.819ZM176.178 126.08H179.238V122.3H175.194V123.104H178.278V125.276H175.23V129.308H175.938C177.27 129.308 178.482 129.26 179.97 129.008L179.898 128.192C178.53 128.432 177.402 128.48 176.178 128.492V126.08ZM183.066 121.124V125.372H181.542V121.364H180.618V131.336H181.542V126.176H183.066V131.876H184.014V121.124H183.066ZM194.741 121.112H193.757V128.396H194.741V121.112ZM192.593 125.408C190.925 125.744 189.413 125.876 187.553 125.876V121.868H186.569V126.692H187.433C189.389 126.692 190.961 126.572 192.725 126.212L192.593 125.408ZM191.753 127.508H190.745V127.952C190.745 129.536 189.053 130.724 187.109 131.06L187.505 131.84C189.149 131.516 190.601 130.664 191.249 129.392C191.885 130.664 193.337 131.516 194.981 131.84L195.377 131.06C193.421 130.724 191.753 129.524 191.753 127.952V127.508Z" fill="#5C5C5C"/>
<rect y="147" width="327" height="1" fill="#CCCCCC"/>
<path d="M18.9561 164.188H20.8761V163.384H15.9681V164.188H18.0081V165.16C18.0081 167.14 17.1681 169.096 15.6681 169.996L16.2681 170.728C17.3361 170.056 18.1161 168.796 18.4881 167.32C18.8601 168.688 19.6041 169.84 20.6481 170.464L21.2481 169.744C19.7601 168.904 18.9561 167.032 18.9561 165.16V164.188ZM21.8361 165.988H20.0601V166.792H21.8361V172.324H22.7721V162.364H21.8361V165.988ZM23.9961 162.112V172.876H24.9441V162.112H23.9961ZM34.3631 163.588C34.3631 164.428 34.3631 165.22 34.0751 166.324L35.0351 166.432C35.3351 165.328 35.3351 164.452 35.3351 163.588V162.676H28.0031V163.468H34.3631V163.588ZM31.6631 172.108C29.9831 172.108 28.9031 171.652 28.9031 170.908C28.9031 170.14 29.9831 169.684 31.6631 169.684C33.3551 169.684 34.4351 170.14 34.4351 170.908C34.4351 171.652 33.3551 172.108 31.6631 172.108ZM31.6631 168.928C29.3711 168.928 27.9191 169.66 27.9191 170.908C27.9191 172.132 29.3711 172.876 31.6631 172.876C33.9551 172.876 35.4191 172.132 35.4191 170.908C35.4191 169.66 33.9551 168.928 31.6631 168.928ZM31.8191 167.14V165.076H30.8351V167.14H26.8631V167.932H36.5471V167.14H31.8191ZM41.0342 169.672C40.0622 169.672 39.3542 168.976 39.3542 168.016C39.3542 167.044 40.0622 166.348 41.0342 166.348C42.0182 166.348 42.7262 167.044 42.7262 168.016C42.7262 168.976 42.0182 169.672 41.0342 169.672ZM41.0342 165.532C39.5222 165.532 38.4302 166.564 38.4302 168.016C38.4302 169.48 39.5222 170.488 41.0342 170.488C42.5702 170.488 43.6622 169.48 43.6622 168.016C43.6622 166.564 42.5702 165.532 41.0342 165.532ZM41.5142 162.256H40.5302V163.852H37.8182V164.644H44.1662V163.852H41.5142V162.256ZM47.9342 166.552H46.1702V162.136H45.1862V172.888H46.1702V167.38H47.9342V166.552ZM57.5453 165.364H51.2093V162.52H50.2253V166.168H57.5453V165.364ZM51.1373 169.48H50.1533V172.624H57.6053V171.82H51.1373V169.48ZM48.9053 167.608V168.4H58.6613V167.608H48.9053ZM68.7778 163.336H66.0898V162.028H65.1058V163.336H62.4298V164.128H68.7778V163.336ZM63.9658 166.564C63.9658 165.868 64.6138 165.412 65.5978 165.412C66.5818 165.412 67.2418 165.868 67.2418 166.564C67.2418 167.272 66.5818 167.728 65.5978 167.728C64.6138 167.728 63.9658 167.272 63.9658 166.564ZM68.1778 166.564C68.1778 165.412 67.1338 164.668 65.5978 164.668C64.0618 164.668 63.0298 165.412 63.0298 166.564C63.0298 167.728 64.0618 168.472 65.5978 168.472C67.1338 168.472 68.1778 167.728 68.1778 166.564ZM67.3738 172.12C65.8018 172.12 64.8418 171.712 64.8418 171.016C64.8418 170.32 65.8018 169.912 67.3738 169.912C68.9458 169.912 69.9058 170.32 69.9058 171.016C69.9058 171.712 68.9458 172.12 67.3738 172.12ZM67.3738 169.156C65.2018 169.156 63.8698 169.828 63.8698 171.016C63.8698 172.192 65.2018 172.876 67.3738 172.876C69.5338 172.876 70.8778 172.192 70.8778 171.016C70.8778 169.828 69.5338 169.156 67.3738 169.156ZM70.7458 165.112V162.124H69.7618V169.048H70.7458V165.928H72.3298V165.112H70.7458ZM74.5129 170.284H80.9809V172.9H81.9649V169.492H74.5129V170.284ZM75.6409 163.348H80.9449V165.436H75.6409V163.348ZM78.7969 167.584V166.216H81.9169V162.568H74.6809V166.216H77.8129V167.584H73.4209V168.376H83.1649V167.584H78.7969Z" fill="#5C5C5C"/>
<rect x="99" y="148" width="1" height="40" fill="#CCCCCC"/>
<path d="M109.044 163.516V164.32H112.272C112.128 166.552 111.108 168.496 108.636 169.876L109.212 170.584C112.272 168.856 113.244 166.288 113.244 163.516H109.044ZM116.82 162.124V166.456H115.356V162.412H114.432V172.348H115.356V167.26H116.82V172.888H117.768V162.124H116.82ZM128.507 162.136H127.523V169.996H128.507V162.136ZM120.887 165.52C120.887 164.476 121.679 163.732 122.723 163.732C123.791 163.732 124.583 164.476 124.583 165.52C124.583 166.588 123.791 167.332 122.723 167.332C121.679 167.332 120.887 166.588 120.887 165.52ZM125.543 165.52C125.543 163.972 124.331 162.88 122.723 162.88C121.127 162.88 119.927 163.972 119.927 165.52C119.927 167.08 121.127 168.184 122.723 168.184C124.331 168.184 125.543 167.08 125.543 165.52ZM122.567 171.844V169.192H121.583V172.648H128.831V171.844H122.567ZM136.462 164.92V165.724H138.586V168.544H139.582V162.136H138.586V164.92H136.462ZM137.062 167.368C135.502 166.816 134.446 165.46 134.446 164.08V163.708H136.81V162.916H131.062V163.708H133.462V164.08C133.462 165.628 132.358 167.08 130.75 167.668L131.266 168.448C132.526 167.968 133.522 166.96 133.978 165.712C134.446 166.816 135.37 167.704 136.57 168.136L137.062 167.368ZM136.03 172.12C134.41 172.12 133.426 171.664 133.426 170.884C133.426 170.104 134.41 169.636 136.03 169.636C137.65 169.636 138.634 170.104 138.634 170.884C138.634 171.664 137.65 172.12 136.03 172.12ZM136.03 168.88C133.822 168.88 132.442 169.612 132.442 170.884C132.442 172.156 133.822 172.888 136.03 172.888C138.238 172.888 139.618 172.156 139.618 170.884C139.618 169.612 138.238 168.88 136.03 168.88ZM143.877 165.616H149.373V167.596H143.877V165.616ZM147.117 170.704V168.388H150.333V162.892H149.373V164.812H143.877V162.892H142.905V168.388H146.121V170.704H141.753V171.508H151.509V170.704H147.117ZM156.17 172.064C156.598 172.064 156.938 171.725 156.938 171.297C156.938 170.869 156.598 170.529 156.17 170.529C155.742 170.529 155.402 170.869 155.402 171.297C155.402 171.725 155.742 172.064 156.17 172.064ZM156.17 167.793C156.598 167.793 156.938 167.459 156.938 167.025C156.938 166.598 156.598 166.258 156.17 166.258C155.742 166.258 155.402 166.598 155.402 167.025C155.402 167.459 155.742 167.793 156.17 167.793ZM168.644 162.124V172.912H169.628V162.124H168.644ZM163.952 162.952C162.356 162.952 161.216 164.416 161.216 166.708C161.216 169 162.356 170.464 163.952 170.464C165.548 170.464 166.688 169 166.688 166.708C166.688 164.416 165.548 162.952 163.952 162.952ZM163.952 163.84C164.996 163.84 165.74 164.968 165.74 166.708C165.74 168.46 164.996 169.588 163.952 169.588C162.896 169.588 162.152 168.46 162.152 166.708C162.152 164.968 162.896 163.84 163.952 163.84ZM179.395 164.2H173.107V166.756H180.595V165.988H174.079V164.932H180.367V162.4H173.083V163.156H179.395V164.2ZM174.127 170.248H179.407V171.952H174.127V170.248ZM173.167 172.744H180.379V169.468H173.167V172.744ZM171.859 167.68V168.472H181.615V167.68H171.859ZM183.785 173.74L184.582 170.646H183.305L182.777 173.74H183.785ZM194.623 165.82H195.991V168.772H196.939V162.136H195.991V165.016H194.623V162.34H193.687V168.424H194.623V165.82ZM193.243 167.176C191.863 166.648 191.059 165.436 191.059 164.248V162.796H190.111V164.248C190.111 165.448 189.271 166.84 187.867 167.464L188.395 168.232C189.439 167.764 190.207 166.852 190.591 165.844C190.975 166.756 191.707 167.524 192.715 167.932L193.243 167.176ZM193.387 172.12C191.779 172.12 190.771 171.688 190.771 170.944C190.771 170.2 191.779 169.78 193.387 169.78C195.019 169.78 196.015 170.2 196.015 170.944C196.015 171.688 195.019 172.12 193.387 172.12ZM193.387 169.012C191.179 169.012 189.799 169.72 189.799 170.944C189.799 172.168 191.179 172.876 193.387 172.876C195.607 172.876 196.987 172.168 196.987 170.944C196.987 169.72 195.607 169.012 193.387 169.012ZM206.766 170.104H207.762V162.136H206.766V163.528H203.73V164.32H206.766V165.592H203.73V166.372H206.766V170.104ZM204.99 167.296C203.382 167.584 201.978 167.668 200.502 167.68V162.904H199.518V168.508H200.334C201.918 168.508 203.37 168.424 205.098 168.112L204.99 167.296ZM201.846 171.844V169.42H200.862V172.648H208.038V171.844H201.846ZM215.621 167.248V167.896H217.757V168.46H218.741V162.136H217.757V167.248H215.621ZM213.377 163.024C214.433 163.024 215.105 163.384 215.105 163.96C215.105 164.512 214.433 164.884 213.377 164.884C212.333 164.884 211.649 164.512 211.649 163.96C211.649 163.384 212.333 163.024 213.377 163.024ZM213.377 165.556C214.973 165.556 216.029 164.944 216.029 163.96C216.029 162.952 214.973 162.34 213.377 162.34C211.781 162.34 210.725 162.952 210.725 163.96C210.725 164.944 211.781 165.556 213.377 165.556ZM212.825 168.496H213.809V166.84C214.853 166.78 215.921 166.696 216.965 166.552L216.905 165.904C214.601 166.168 211.973 166.18 209.897 166.18L210.017 166.924C210.881 166.924 211.829 166.912 212.825 166.888V168.496ZM212.525 172.036V171.1H218.741V168.856H211.529V169.564H217.781V170.428H211.553V172.768H219.113V172.036H212.525ZM229.804 162.124H228.82V167.644H229.804V162.124ZM222.172 164.908C222.172 163.972 222.952 163.312 223.996 163.312C225.052 163.312 225.82 163.972 225.82 164.908C225.82 165.832 225.052 166.492 223.996 166.492C222.952 166.492 222.172 165.832 222.172 164.908ZM226.78 164.908C226.78 163.48 225.604 162.508 223.996 162.508C222.388 162.508 221.224 163.48 221.224 164.908C221.224 166.324 222.388 167.284 223.996 167.284C225.604 167.284 226.78 166.324 226.78 164.908ZM223.828 171.964V170.776H229.804V168.172H222.832V168.952H228.832V170.044H222.856V172.744H230.164V171.964H223.828ZM232.898 173.74L233.695 170.646H232.418L231.891 173.74H232.898ZM244.84 168.496H245.836V162.136H244.84V164.416H242.5V165.22H244.84V168.496ZM243.28 167.224C241.708 166.672 240.664 165.34 240.664 163.804V162.736H239.68V163.84C239.68 165.484 238.612 166.924 236.956 167.512L237.472 168.316C238.768 167.824 239.74 166.852 240.196 165.58C240.664 166.696 241.576 167.548 242.752 167.992L243.28 167.224ZM242.284 172.096C240.664 172.096 239.68 171.628 239.68 170.848C239.68 170.056 240.664 169.588 242.284 169.588C243.904 169.588 244.888 170.056 244.888 170.848C244.888 171.628 243.904 172.096 242.284 172.096ZM242.284 168.82C240.076 168.82 238.696 169.552 238.696 170.848C238.696 172.132 240.076 172.876 242.284 172.876C244.492 172.876 245.872 172.132 245.872 170.848C245.872 169.552 244.492 168.82 242.284 168.82ZM255.879 164.428V165.616H253.395V164.428H255.879ZM252.423 166.528H249.519V164.932H252.423V166.528ZM253.395 166.384H255.879V167.752H256.863V162.136H255.879V163.66H253.395V162.64H252.423V164.164H249.519V162.628H248.547V167.32H253.395V166.384ZM250.923 171.964V170.824H256.863V168.268H249.927V169.048H255.891V170.08H249.951V172.744H257.271V171.964H250.923ZM259.934 173.74L260.73 170.646H259.453L258.926 173.74H259.934ZM265.107 165.508C265.107 164.44 265.887 163.672 266.943 163.672C267.987 163.672 268.767 164.44 268.767 165.508C268.767 166.576 267.987 167.344 266.943 167.344C265.887 167.344 265.107 166.576 265.107 165.508ZM271.875 164.608V166.396H269.559C269.655 166.12 269.703 165.82 269.703 165.508C269.703 165.184 269.655 164.884 269.559 164.608H271.875ZM271.875 167.188V170.08H272.871V162.136H271.875V163.816H269.139C268.635 163.192 267.867 162.808 266.943 162.808C265.359 162.808 264.171 163.936 264.171 165.508C264.171 167.08 265.359 168.208 266.943 168.208C267.867 168.208 268.647 167.824 269.151 167.188H271.875ZM266.979 171.844V169.264H265.983V172.648H273.171V171.844H266.979ZM281.378 166.936C279.746 167.224 278.366 167.296 276.482 167.296V165.748H280.334V162.76H275.486V163.564H279.362V164.992H275.51V168.1H276.362C278.354 168.1 279.77 168.028 281.474 167.74L281.378 166.936ZM276.398 170.032H282.41V172.876H283.394V169.24H276.398V170.032ZM284.99 164.884H283.394V162.136H282.41V168.676H283.394V165.7H284.99V164.884ZM289.801 164.776H292.189V163.984H289.801V162.316H288.817V163.984H286.393V164.776H288.829V165.604C288.829 167.464 287.677 169.3 286.093 170.056L286.645 170.812C287.869 170.212 288.865 168.964 289.321 167.464C289.801 168.88 290.797 170.044 292.021 170.608L292.561 169.852C290.977 169.144 289.801 167.392 289.801 165.604V164.776ZM293.965 162.112V166.444H291.637V167.248H293.965V172.912H294.949V162.112H293.965Z" fill="#5C5C5C"/>
<rect y="188" width="327" height="1" fill="#CCCCCC"/>
<rect y="229" width="327" height="1" fill="#CCCCCC"/>
<path d="M16.8858 203.124V213.912H17.8698V203.124H16.8858ZM12.1938 203.952C10.5978 203.952 9.45778 205.416 9.45778 207.708C9.45778 210 10.5978 211.464 12.1938 211.464C13.7898 211.464 14.9298 210 14.9298 207.708C14.9298 205.416 13.7898 203.952 12.1938 203.952ZM12.1938 204.84C13.2378 204.84 13.9818 205.968 13.9818 207.708C13.9818 209.46 13.2378 210.588 12.1938 210.588C11.1378 210.588 10.3938 209.46 10.3938 207.708C10.3938 205.968 11.1378 204.84 12.1938 204.84ZM24.9608 213.12C23.2688 213.12 22.2728 212.7 22.2728 211.968C22.2728 211.236 23.2688 210.816 24.9608 210.816C26.6408 210.816 27.6488 211.236 27.6488 211.968C27.6488 212.7 26.6408 213.12 24.9608 213.12ZM24.9608 210.048C22.6568 210.048 21.2768 210.732 21.2768 211.968C21.2768 213.204 22.6568 213.876 24.9608 213.876C27.2768 213.876 28.6448 213.204 28.6448 211.968C28.6448 210.732 27.2768 210.048 24.9608 210.048ZM23.4728 207.192C23.9168 207.264 24.4208 207.312 24.9608 207.312C25.5128 207.312 26.0168 207.264 26.4608 207.192V208.452H23.4728V207.192ZM22.1888 205.32C22.1888 204.54 23.2448 204.084 24.9608 204.084C26.6768 204.084 27.7328 204.54 27.7328 205.32C27.7328 206.088 26.6768 206.556 24.9608 206.556C23.2448 206.556 22.1888 206.088 22.1888 205.32ZM27.4328 208.452V206.928C28.2608 206.592 28.7408 206.04 28.7408 205.32C28.7408 204.06 27.3008 203.316 24.9608 203.316C22.6328 203.316 21.1808 204.06 21.1808 205.32C21.1808 206.052 21.6488 206.592 22.5008 206.94V208.452H20.0888V209.244H29.8328V208.452H27.4328ZM42.3974 203.124H41.4134V209.304H42.3974V203.124ZM38.2094 207.432H35.1014V204.6H38.2094V207.432ZM39.1694 203.82H34.1414V208.224H39.1694V203.82ZM42.6494 210.792V210.036H39.4934V208.992H38.4974V210.036H35.3414V210.792H38.4854C38.4734 211.86 36.7574 212.88 34.9214 213.096L35.2454 213.852C36.8654 213.624 38.3534 212.904 39.0014 211.884C39.6374 212.88 41.0774 213.624 42.6974 213.852L43.0334 213.096C41.1854 212.868 39.5174 211.824 39.5054 210.792H42.6494ZM49.178 206.616H54.674V208.596H49.178V206.616ZM52.418 211.704V209.388H55.634V203.892H54.674V205.812H49.178V203.892H48.206V209.388H51.422V211.704H47.054V212.508H56.81V211.704H52.418ZM62.941 204.348C64.585 204.348 65.701 204.948 65.701 205.896C65.701 206.844 64.585 207.456 62.941 207.456C61.309 207.456 60.193 206.844 60.193 205.896C60.193 204.948 61.309 204.348 62.941 204.348ZM62.941 208.248C65.185 208.248 66.709 207.336 66.709 205.896C66.709 204.456 65.185 203.556 62.941 203.556C60.709 203.556 59.185 204.456 59.185 205.896C59.185 207.336 60.709 208.248 62.941 208.248ZM67.837 209.256H58.093V210.06H60.601V213.888H61.597V210.06H64.297V213.888H65.293V210.06H67.837V209.256ZM69.7681 204.288V205.08H73.8121C73.6081 207.636 72.1681 209.7 69.2761 211.08L69.8041 211.884C73.3801 210.132 74.8081 207.396 74.8081 204.288H69.7681ZM76.9801 203.124V213.888H77.9641V203.124H76.9801ZM80.6272 203.964V204.768H84.5872C84.3832 206.664 82.7272 208.188 80.1952 208.98L80.5912 209.76C83.6872 208.788 85.6432 206.748 85.6432 203.964H80.6272ZM82.7992 210.192H81.8152V213.648H88.9912V212.844H82.7992V210.192ZM88.5232 206.4V203.136H87.5392V210.996H88.5232V207.216H90.1072V206.4H88.5232Z" fill="#5C5C5C"/>
<rect x="99" y="189" width="1" height="40" fill="#CCCCCC"/>
<path d="M111.792 197.188H113.712V196.384H108.804V197.188H110.844V198.16C110.844 200.14 110.004 202.096 108.504 202.996L109.104 203.728C110.172 203.056 110.952 201.796 111.324 200.32C111.696 201.688 112.44 202.84 113.484 203.464L114.084 202.744C112.596 201.904 111.792 200.032 111.792 198.16V197.188ZM114.672 198.988H112.896V199.792H114.672V205.324H115.608V195.364H114.672V198.988ZM116.832 195.112V205.876H117.78V195.112H116.832ZM121.535 201.174H122.59C123.703 201.174 124.395 201.736 124.395 202.65C124.395 203.477 123.656 204.062 122.625 204.062C121.559 204.062 120.891 203.506 120.809 202.697H119.549C119.631 204.156 120.803 205.158 122.625 205.158C124.389 205.158 125.73 204.145 125.73 202.668C125.73 201.484 124.91 200.705 123.639 200.617V200.594C124.688 200.406 125.379 199.65 125.379 198.596C125.379 197.295 124.213 196.387 122.613 196.387C120.938 196.387 119.818 197.342 119.719 198.824H120.955C121.031 197.992 121.641 197.465 122.555 197.465C123.557 197.465 124.096 197.986 124.096 198.771C124.096 199.568 123.469 200.143 122.555 200.143H121.535V201.174ZM130.565 197.044H132.953V196.228H127.133V197.044H129.593V198.412C129.593 200.236 128.297 202.276 126.761 203.044L127.337 203.824C128.549 203.2 129.593 201.832 130.085 200.26C130.577 201.7 131.585 202.96 132.785 203.56L133.349 202.768C131.789 202.036 130.565 200.128 130.565 198.412V197.044ZM136.997 199.468H135.221V195.136H134.237V205.888H135.221V200.296H136.997V199.468ZM143.573 197.188H145.493V196.384H140.585V197.188H142.625V198.16C142.625 200.14 141.785 202.096 140.285 202.996L140.885 203.728C141.953 203.056 142.733 201.796 143.105 200.32C143.477 201.688 144.221 202.84 145.265 203.464L145.865 202.744C144.377 201.904 143.573 200.032 143.573 198.16V197.188ZM146.453 198.988H144.677V199.792H146.453V205.324H147.389V195.364H146.453V198.988ZM148.613 195.112V205.876H149.561V195.112H148.613ZM158.98 196.588C158.98 197.428 158.98 198.22 158.692 199.324L159.652 199.432C159.952 198.328 159.952 197.452 159.952 196.588V195.676H152.62V196.468H158.98V196.588ZM156.28 205.108C154.6 205.108 153.52 204.652 153.52 203.908C153.52 203.14 154.6 202.684 156.28 202.684C157.972 202.684 159.052 203.14 159.052 203.908C159.052 204.652 157.972 205.108 156.28 205.108ZM156.28 201.928C153.988 201.928 152.536 202.66 152.536 203.908C152.536 205.132 153.988 205.876 156.28 205.876C158.572 205.876 160.036 205.132 160.036 203.908C160.036 202.66 158.572 201.928 156.28 201.928ZM156.436 200.14V198.076H155.452V200.14H151.48V200.932H161.164V200.14H156.436ZM169.805 205.12C168.101 205.12 167.105 204.7 167.105 203.944C167.105 203.188 168.101 202.768 169.805 202.768C171.485 202.768 172.481 203.188 172.481 203.944C172.481 204.7 171.485 205.12 169.805 205.12ZM169.805 202C167.501 202 166.109 202.696 166.109 203.944C166.109 205.192 167.501 205.888 169.805 205.888C172.085 205.888 173.477 205.192 173.477 203.944C173.477 202.696 172.085 202 169.805 202ZM170.297 200.44V199.192H173.537V198.4H167.141V196.408H173.465V195.616H166.157V199.192H169.313V200.44H164.933V201.232H174.677V200.44H170.297ZM179.464 195.916C177.796 195.916 176.584 196.936 176.584 198.448C176.584 199.948 177.796 200.98 179.464 200.98C181.144 200.98 182.344 199.948 182.344 198.448C182.344 196.936 181.144 195.916 179.464 195.916ZM179.464 196.756C180.58 196.756 181.384 197.44 181.384 198.448C181.384 199.444 180.58 200.14 179.464 200.14C178.36 200.14 177.544 199.444 177.544 198.448C177.544 197.44 178.36 196.756 179.464 196.756ZM183.76 195.124V205.912H184.744V195.124H183.76ZM176.164 203.548C178.108 203.548 180.712 203.524 183.136 203.08L183.052 202.348C180.7 202.708 178 202.72 176.044 202.72L176.164 203.548ZM193.265 196.06H192.293V197.992C192.293 200.032 190.985 202.096 189.401 202.852L190.001 203.656C191.261 203.008 192.293 201.664 192.785 200.044C193.301 201.58 194.333 202.852 195.557 203.452L196.145 202.66C194.549 201.94 193.265 199.96 193.265 197.992V196.06ZM197.273 195.124V205.912H198.257V195.124H197.273ZM206.836 200.308C205.276 199.756 204.22 198.412 204.22 197.008V196.612H206.584V195.808H200.836V196.612H203.236V197.02C203.236 198.544 202.12 199.972 200.524 200.548L201.04 201.316C202.3 200.86 203.284 199.876 203.752 198.64C204.22 199.744 205.144 200.644 206.344 201.076L206.836 200.308ZM203.32 202.732H208.396V204.952H203.32V202.732ZM202.36 205.744H209.356V201.952H202.36V205.744ZM208.36 195.124V197.824H206.236V198.64H208.36V201.424H209.356V195.124H208.36ZM219.063 199.408H213.723V197.824H219.063V199.408ZM220.047 195.556H219.063V197.032H213.723V195.556H212.751V200.212H220.047V195.556ZM221.283 201.508H211.515V202.3H215.883V205.9H216.867V202.3H221.283V201.508ZM224.042 199.924H227.57V199.132H224.042V196.912H228.038V196.096H223.058V203.308H223.886C225.938 203.308 227.246 203.248 228.806 202.972L228.698 202.168C227.234 202.432 225.986 202.504 224.042 202.504V199.924ZM230.45 195.112V199.18H228.23V199.996H230.45V205.9H231.434V195.112H230.45ZM237.122 203.284H243.59V205.9H244.574V202.492H237.122V203.284ZM238.25 196.348H243.554V198.436H238.25V196.348ZM241.406 200.584V199.216H244.526V195.568H237.29V199.216H240.422V200.584H236.03V201.376H245.774V200.584H241.406ZM253.429 200.38C251.869 199.828 250.813 198.472 250.813 197.092V196.66H253.177V195.856H247.429V196.66H249.829V197.092C249.829 198.616 248.713 200.056 247.117 200.62L247.633 201.4C248.893 200.932 249.877 199.948 250.333 198.712C250.813 199.828 251.737 200.716 252.937 201.148L253.429 200.38ZM248.749 202.948H254.953V205.9H255.949V202.156H248.749V202.948ZM254.953 195.124V197.932H252.853V198.736H254.953V201.568H255.949V195.124H254.953ZM266.786 198.976C265.346 199.264 264.098 199.348 262.01 199.348V196.54H265.79V195.748H261.038V200.14H261.866C264.086 200.14 265.394 200.068 266.906 199.756L266.786 198.976ZM263.066 203.74H268.91V201.088H262.07V201.868H267.938V202.996H262.106V205.744H269.306V204.952H263.066V203.74ZM268.91 197.392V195.124H267.926V200.536H268.91V198.196H270.506V197.392H268.91ZM279.469 201.496H280.465V195.136H279.469V197.416H277.129V198.22H279.469V201.496ZM277.909 200.224C276.337 199.672 275.293 198.34 275.293 196.804V195.736H274.309V196.84C274.309 198.484 273.241 199.924 271.585 200.512L272.101 201.316C273.397 200.824 274.369 199.852 274.825 198.58C275.293 199.696 276.205 200.548 277.381 200.992L277.909 200.224ZM276.913 205.096C275.293 205.096 274.309 204.628 274.309 203.848C274.309 203.056 275.293 202.588 276.913 202.588C278.533 202.588 279.517 203.056 279.517 203.848C279.517 204.628 278.533 205.096 276.913 205.096ZM276.913 201.82C274.705 201.82 273.325 202.552 273.325 203.848C273.325 205.132 274.705 205.876 276.913 205.876C279.121 205.876 280.501 205.132 280.501 203.848C280.501 202.552 279.121 201.82 276.913 201.82ZM287.496 196.048C289.26 196.048 290.268 196.456 290.268 197.176C290.268 197.896 289.26 198.304 287.496 198.304C285.732 198.304 284.724 197.896 284.724 197.176C284.724 196.456 285.732 196.048 287.496 196.048ZM287.496 199.036C289.86 199.036 291.276 198.388 291.276 197.176C291.276 195.964 289.86 195.304 287.496 195.304C285.132 195.304 283.716 195.964 283.716 197.176C283.716 198.388 285.132 199.036 287.496 199.036ZM284.796 203.908H291.12V201.484H283.8V202.228H290.148V203.188H283.836V205.768H291.444V205H284.796V203.908ZM282.624 199.768V200.56H292.368V199.768H282.624ZM299.641 196.444C300.685 196.444 301.429 197.008 301.429 197.848C301.429 198.688 300.685 199.252 299.641 199.252C298.585 199.252 297.841 198.688 297.841 197.848C297.841 197.008 298.585 196.444 299.641 196.444ZM299.641 200.056C301.237 200.056 302.377 199.156 302.377 197.848C302.377 196.528 301.237 195.628 299.641 195.628C298.033 195.628 296.893 196.528 296.893 197.848C296.893 199.156 298.033 200.056 299.641 200.056ZM303.181 200.584C300.817 200.944 298.093 200.968 296.089 200.968L296.221 201.796C297.109 201.796 298.129 201.784 299.197 201.736V205.552H300.181V201.676C301.201 201.616 302.245 201.496 303.265 201.316L303.181 200.584ZM303.961 195.136V205.9H304.945V195.136H303.961ZM313.536 196.444H310.848V195.124H309.864V196.444H307.188V197.236H313.536V196.444ZM308.724 199.828C308.724 199.084 309.384 198.604 310.356 198.604C311.328 198.604 312 199.084 312 199.828C312 200.584 311.328 201.064 310.356 201.064C309.384 201.064 308.724 200.584 308.724 199.828ZM312.936 199.828C312.936 198.628 311.88 197.836 310.356 197.836C308.832 197.836 307.788 198.628 307.788 199.828C307.788 201.04 308.832 201.832 310.356 201.832C311.88 201.832 312.936 201.04 312.936 199.828ZM309.792 202.564H308.808V205.648H315.984V204.844H309.792V202.564ZM315.504 198.676V195.124H314.52V203.2H315.504V199.504H317.088V198.676H315.504ZM109.272 212.288V213.08H113.316C113.112 215.636 111.672 217.7 108.78 219.08L109.308 219.884C112.884 218.132 114.312 215.396 114.312 212.288H109.272ZM116.484 211.124V221.888H117.468V211.124H116.484ZM120.131 211.964V212.768H124.091C123.887 214.664 122.231 216.188 119.699 216.98L120.095 217.76C123.191 216.788 125.147 214.748 125.147 211.964H120.131ZM122.303 218.192H121.319V221.648H128.495V220.844H122.303V218.192ZM128.027 214.4V211.136H127.043V218.996H128.027V215.216H129.611V214.4H128.027ZM138.024 221.12C136.32 221.12 135.324 220.7 135.324 219.944C135.324 219.188 136.32 218.768 138.024 218.768C139.704 218.768 140.7 219.188 140.7 219.944C140.7 220.7 139.704 221.12 138.024 221.12ZM138.024 218C135.72 218 134.328 218.696 134.328 219.944C134.328 221.192 135.72 221.888 138.024 221.888C140.304 221.888 141.696 221.192 141.696 219.944C141.696 218.696 140.304 218 138.024 218ZM138.516 216.44V215.192H141.756V214.4H135.36V212.408H141.684V211.616H134.376V215.192H137.532V216.44H133.152V217.232H142.896V216.44H138.516ZM145.355 214.532C145.355 213.476 146.147 212.732 147.203 212.732C148.259 212.732 149.051 213.476 149.051 214.532C149.051 215.588 148.259 216.332 147.203 216.332C146.147 216.332 145.355 215.588 145.355 214.532ZM150.011 214.532C150.011 212.972 148.811 211.88 147.203 211.88C145.595 211.88 144.395 212.972 144.395 214.532C144.395 216.092 145.595 217.184 147.203 217.184C148.811 217.184 150.011 216.092 150.011 214.532ZM146.831 218.24H145.847V221.648H153.023V220.844H146.831V218.24ZM152.543 214.4V211.124H151.559V219.044H152.543V215.216H154.127V214.4H152.543ZM159.791 214.616H165.287V216.596H159.791V214.616ZM163.031 219.704V217.388H166.247V211.892H165.287V213.812H159.791V211.892H158.819V217.388H162.035V219.704H157.667V220.508H167.423V219.704H163.031ZM173.554 212.348C175.198 212.348 176.314 212.948 176.314 213.896C176.314 214.844 175.198 215.456 173.554 215.456C171.922 215.456 170.806 214.844 170.806 213.896C170.806 212.948 171.922 212.348 173.554 212.348ZM173.554 216.248C175.798 216.248 177.322 215.336 177.322 213.896C177.322 212.456 175.798 211.556 173.554 211.556C171.322 211.556 169.798 212.456 169.798 213.896C169.798 215.336 171.322 216.248 173.554 216.248ZM178.45 217.256H168.706V218.06H171.214V221.888H172.21V218.06H174.91V221.888H175.906V218.06H178.45V217.256ZM191.339 212.36H187.547V211.064H186.551V212.36H182.687V213.152H191.339V212.36ZM189.515 215.564C189.515 216.224 188.627 216.608 187.055 216.608C185.483 216.608 184.571 216.224 184.571 215.564C184.571 214.904 185.483 214.52 187.055 214.52C188.627 214.52 189.515 214.904 189.515 215.564ZM183.551 215.564C183.551 216.716 184.859 217.352 187.055 217.352C189.227 217.352 190.535 216.716 190.535 215.564C190.535 214.412 189.227 213.764 187.055 213.764C184.859 213.764 183.551 214.412 183.551 215.564ZM191.939 218.108H182.183V218.912H186.551V221.9H187.547V218.912H191.939V218.108ZM197.915 213.08H199.679V218.312C199.091 218.336 198.491 218.36 197.915 218.372V213.08ZM200.639 213.08H201.791V212.288H195.803V213.08H196.955V218.384C196.451 218.396 195.971 218.396 195.527 218.396L195.647 219.224C197.543 219.224 200.099 219.188 202.355 218.828L202.283 218.096C201.755 218.168 201.203 218.216 200.639 218.252V213.08ZM205.715 215.432H203.939V211.136H202.955V221.888H203.939V216.248H205.715V215.432ZM207.335 212.288V213.08H211.379C211.175 215.636 209.735 217.7 206.843 219.08L207.371 219.884C210.947 218.132 212.375 215.396 212.375 212.288H207.335ZM214.547 211.124V221.888H215.531V211.124H214.547Z" fill="#5C5C5C"/>
</svg>
