<svg width="327" height="325" viewBox="0 0 327 325" fill="none" xmlns="http://www.w3.org/2000/svg">
<rect y="16" width="327" height="1" fill="#CCCCCC"/>
<rect width="327" height="40" transform="translate(0 17)" fill="#EBEBEB"/>
<path d="M48.8409 36.452H47.2449C47.5449 34.904 47.5449 33.764 47.5449 32.756V31.82H40.3209V32.612H46.5849V32.756C46.5849 33.764 46.5849 34.904 46.2489 36.452H39.1089V37.256H43.4529V41.9H44.4489V37.256H48.8409V36.452ZM57.624 34.988H52.392V33.596H57.624V34.988ZM58.596 31.46H57.624V32.84H52.392V31.46H51.42V35.768H58.596V31.46ZM52.332 38.72H51.36V41.648H58.8V40.844H52.332V38.72ZM50.112 36.812V37.604H54.588V39.692H55.572V37.604H59.892V36.812H50.112Z" fill="#5C5C5C"/>
<rect x="99" y="17" width="1" height="40" fill="#CCCCCC"/>
<path d="M203.961 32.336H201.273V31.028H200.289V32.336H197.613V33.128H203.961V32.336ZM199.149 35.564C199.149 34.868 199.797 34.412 200.781 34.412C201.765 34.412 202.425 34.868 202.425 35.564C202.425 36.272 201.765 36.728 200.781 36.728C199.797 36.728 199.149 36.272 199.149 35.564ZM203.361 35.564C203.361 34.412 202.317 33.668 200.781 33.668C199.245 33.668 198.213 34.412 198.213 35.564C198.213 36.728 199.245 37.472 200.781 37.472C202.317 37.472 203.361 36.728 203.361 35.564ZM202.557 41.12C200.985 41.12 200.025 40.712 200.025 40.016C200.025 39.32 200.985 38.912 202.557 38.912C204.129 38.912 205.089 39.32 205.089 40.016C205.089 40.712 204.129 41.12 202.557 41.12ZM202.557 38.156C200.385 38.156 199.053 38.828 199.053 40.016C199.053 41.192 200.385 41.876 202.557 41.876C204.717 41.876 206.061 41.192 206.061 40.016C206.061 38.828 204.717 38.156 202.557 38.156ZM205.929 34.112V31.124H204.945V38.048H205.929V34.928H207.513V34.112H205.929ZM209.696 39.284H216.164V41.9H217.148V38.492H209.696V39.284ZM210.824 32.348H216.128V34.436H210.824V32.348ZM213.98 36.584V35.216H217.1V31.568H209.864V35.216H212.996V36.584H208.604V37.376H218.348V36.584H213.98ZM224.096 35.936H221.12V32.732H224.096V35.936ZM227.528 33.668V35H225.056V33.668H227.528ZM225.056 35.792H227.528V37.496H228.524V31.136H227.528V32.876H225.056V31.94H220.148V36.716H225.056V35.792ZM224.96 41.108C223.352 41.108 222.368 40.64 222.368 39.848C222.368 39.056 223.352 38.588 224.96 38.588C226.592 38.588 227.576 39.056 227.576 39.848C227.576 40.64 226.592 41.108 224.96 41.108ZM224.96 37.82C222.752 37.82 221.384 38.552 221.384 39.848C221.384 41.132 222.752 41.876 224.96 41.876C227.18 41.876 228.56 41.132 228.56 39.848C228.56 38.552 227.18 37.82 224.96 37.82Z" fill="#5C5C5C"/>
<rect y="57" width="327" height="1" fill="#CCCCCC"/>
<path d="M23.4234 80.228C21.4674 79.94 19.5474 78.608 19.5474 77.108V76.508H18.5154V77.108C18.5154 78.644 16.6194 79.94 14.6634 80.228L15.0594 81.02C16.7394 80.732 18.3594 79.808 19.0314 78.5C19.7274 79.796 21.3474 80.732 23.0154 81.02L23.4234 80.228ZM23.8914 82.184H14.1714V83H18.5154V86.9H19.4994V83H23.9034L23.8914 82.184ZM31.7865 81.032C30.2025 80.54 29.0745 79.28 29.0745 77.864V77.624H31.5105V76.82H25.6065V77.624H28.0665V77.864C28.0665 79.34 26.9625 80.684 25.3305 81.2L25.8345 81.98C27.1185 81.536 28.1145 80.6 28.5825 79.412C29.0745 80.528 30.0705 81.392 31.3065 81.788L31.7865 81.032ZM33.0585 85.94H28.0665V84.548H33.0585V85.94ZM33.0585 83.78H28.0665V82.472H27.0945V86.744H34.0305V82.472H33.0585V83.78ZM33.0465 76.124V81.956H34.0305V76.124H33.0465ZM37.2422 83.1875C37.6816 83.1875 38.0215 82.8477 38.0215 82.4023C38.0215 81.9629 37.6816 81.623 37.2422 81.623C36.8086 81.623 36.4629 81.9629 36.4629 82.4023C36.4629 82.8477 36.8086 83.1875 37.2422 83.1875ZM47.3428 76.124V86.912H48.3268V76.124H47.3428ZM42.6508 76.952C41.0548 76.952 39.9148 78.416 39.9148 80.708C39.9148 83 41.0548 84.464 42.6508 84.464C44.2468 84.464 45.3868 83 45.3868 80.708C45.3868 78.416 44.2468 76.952 42.6508 76.952ZM42.6508 77.84C43.6948 77.84 44.4388 78.968 44.4388 80.708C44.4388 82.46 43.6948 83.588 42.6508 83.588C41.5948 83.588 40.8508 82.46 40.8508 80.708C40.8508 78.968 41.5948 77.84 42.6508 77.84ZM55.4179 86.12C53.7259 86.12 52.7299 85.7 52.7299 84.968C52.7299 84.236 53.7259 83.816 55.4179 83.816C57.0979 83.816 58.1059 84.236 58.1059 84.968C58.1059 85.7 57.0979 86.12 55.4179 86.12ZM55.4179 83.048C53.1139 83.048 51.7339 83.732 51.7339 84.968C51.7339 86.204 53.1139 86.876 55.4179 86.876C57.7339 86.876 59.1019 86.204 59.1019 84.968C59.1019 83.732 57.7339 83.048 55.4179 83.048ZM53.9299 80.192C54.3739 80.264 54.8779 80.312 55.4179 80.312C55.9699 80.312 56.4739 80.264 56.9179 80.192V81.452H53.9299V80.192ZM52.6459 78.32C52.6459 77.54 53.7019 77.084 55.4179 77.084C57.1339 77.084 58.1899 77.54 58.1899 78.32C58.1899 79.088 57.1339 79.556 55.4179 79.556C53.7019 79.556 52.6459 79.088 52.6459 78.32ZM57.8899 81.452V79.928C58.7179 79.592 59.1979 79.04 59.1979 78.32C59.1979 77.06 57.7579 76.316 55.4179 76.316C53.0899 76.316 51.6379 77.06 51.6379 78.32C51.6379 79.052 52.1059 79.592 52.9579 79.94V81.452H50.5459V82.244H60.2899V81.452H57.8899ZM65.1144 84.284H71.5824V86.9H72.5664V83.492H65.1144V84.284ZM66.2424 77.348H71.5464V79.436H66.2424V77.348ZM69.3984 81.584V80.216H72.5184V76.568H65.2824V80.216H68.4144V81.584H64.0224V82.376H73.7664V81.584H69.3984ZM81.4215 81.38C79.8615 80.828 78.8055 79.472 78.8055 78.092V77.66H81.1695V76.856H75.4215V77.66H77.8215V78.092C77.8215 79.616 76.7055 81.056 75.1095 81.62L75.6255 82.4C76.8855 81.932 77.8695 80.948 78.3255 79.712C78.8055 80.828 79.7295 81.716 80.9295 82.148L81.4215 81.38ZM76.7415 83.948H82.9455V86.9H83.9415V83.156H76.7415V83.948ZM82.9455 76.124V78.932H80.8455V79.736H82.9455V82.568H83.9415V76.124H82.9455Z" fill="#5C5C5C"/>
<rect x="99" y="58" width="1" height="48" fill="#CCCCCC"/>
<path d="M109.212 69.276V70.092H113.16C112.932 72.636 111.456 74.7 108.708 76.08L109.248 76.848C112.728 75.108 114.132 72.336 114.132 69.276H109.212ZM118.644 72.492H116.916V68.124H115.932V78.888H116.916V73.308H118.644V72.492ZM127.523 68.136V73.908H128.507V68.136H127.523ZM121.571 74.436V78.744H128.507V74.436H127.535V75.756H122.543V74.436H121.571ZM122.543 76.524H127.535V77.952H122.543V76.524ZM122.723 68.64C121.103 68.64 119.927 69.648 119.927 71.112C119.927 72.6 121.103 73.596 122.723 73.596C124.355 73.596 125.543 72.6 125.543 71.112C125.543 69.648 124.355 68.64 122.723 68.64ZM122.723 69.456C123.815 69.456 124.583 70.14 124.583 71.112C124.583 72.096 123.815 72.78 122.723 72.78C121.655 72.78 120.887 72.096 120.887 71.112C120.887 70.14 121.655 69.456 122.723 69.456ZM137.098 69.444H134.41V68.124H133.426V69.444H130.75V70.236H137.098V69.444ZM132.286 72.828C132.286 72.084 132.946 71.604 133.918 71.604C134.89 71.604 135.562 72.084 135.562 72.828C135.562 73.584 134.89 74.064 133.918 74.064C132.946 74.064 132.286 73.584 132.286 72.828ZM136.498 72.828C136.498 71.628 135.442 70.836 133.918 70.836C132.394 70.836 131.35 71.628 131.35 72.828C131.35 74.04 132.394 74.832 133.918 74.832C135.442 74.832 136.498 74.04 136.498 72.828ZM133.354 75.564H132.37V78.648H139.546V77.844H133.354V75.564ZM139.066 71.676V68.124H138.082V76.2H139.066V72.504H140.65V71.676H139.066ZM146.315 71.616H151.811V73.596H146.315V71.616ZM149.555 76.704V74.388H152.771V68.892H151.811V70.812H146.315V68.892H145.343V74.388H148.559V76.704H144.191V77.508H153.947V76.704H149.555ZM161.482 69.252H158.854V68.016H157.87V69.252H155.242V70.044H161.482V69.252ZM156.802 72.516C156.802 71.82 157.45 71.34 158.362 71.34C159.274 71.34 159.922 71.82 159.922 72.516C159.922 73.212 159.274 73.692 158.362 73.692C157.45 73.692 156.802 73.212 156.802 72.516ZM160.846 72.516C160.846 71.364 159.814 70.596 158.362 70.596C156.898 70.596 155.866 71.364 155.866 72.516C155.866 73.668 156.898 74.424 158.362 74.424C159.814 74.424 160.846 73.668 160.846 72.516ZM158.062 75.996H163.138V77.952H158.062V75.996ZM157.102 78.744H164.098V75.216H157.102V78.744ZM163.102 68.136V71.4H161.314V72.204H163.102V74.64H164.098V68.136H163.102ZM169.761 68.916C168.093 68.916 166.881 69.936 166.881 71.448C166.881 72.948 168.093 73.98 169.761 73.98C171.441 73.98 172.641 72.948 172.641 71.448C172.641 69.936 171.441 68.916 169.761 68.916ZM169.761 69.756C170.877 69.756 171.681 70.44 171.681 71.448C171.681 72.444 170.877 73.14 169.761 73.14C168.657 73.14 167.841 72.444 167.841 71.448C167.841 70.44 168.657 69.756 169.761 69.756ZM174.057 68.124V78.912H175.041V68.124H174.057ZM166.461 76.548C168.405 76.548 171.009 76.524 173.433 76.08L173.349 75.348C170.997 75.708 168.297 75.72 166.341 75.72L166.461 76.548ZM181.869 71.616H187.365V73.596H181.869V71.616ZM185.109 76.704V74.388H188.325V68.892H187.365V70.812H181.869V68.892H180.897V74.388H184.113V76.704H179.745V77.508H189.501V76.704H185.109ZM197.024 73.332C195.44 72.804 194.42 71.544 194.42 70.14V69.72H196.796V68.928H191.024V69.72H193.436V70.14C193.436 71.688 192.356 73.08 190.736 73.644L191.24 74.424C192.524 73.968 193.496 73.008 193.952 71.784C194.408 72.852 195.332 73.704 196.556 74.1L197.024 73.332ZM195.716 78.096C194.108 78.096 193.148 77.652 193.148 76.884C193.148 76.128 194.108 75.684 195.716 75.684C197.3 75.684 198.272 76.128 198.272 76.884C198.272 77.652 197.3 78.096 195.716 78.096ZM195.716 74.904C193.508 74.904 192.164 75.636 192.164 76.884C192.164 78.144 193.508 78.876 195.716 78.876C197.9 78.876 199.256 78.144 199.256 76.884C199.256 75.636 197.9 74.904 195.716 74.904ZM199.136 70.848V68.136H198.152V74.628H199.136V71.676H200.732V70.848H199.136ZM209.312 71.988H204.08V70.596H209.312V71.988ZM210.284 68.46H209.312V69.84H204.08V68.46H203.108V72.768H210.284V68.46ZM204.02 75.72H203.048V78.648H210.488V77.844H204.02V75.72ZM201.8 73.812V74.604H206.276V76.692H207.26V74.604H211.58V73.812H201.8ZM219.151 73.248C217.591 72.696 216.523 71.316 216.523 69.84V68.664H215.539V69.804C215.539 71.436 214.507 72.888 212.875 73.476L213.391 74.268C214.651 73.764 215.599 72.804 216.055 71.544C216.523 72.672 217.447 73.572 218.623 74.028L219.151 73.248ZM214.519 75.876H220.735V78.9H221.731V75.084H214.519V75.876ZM220.735 68.136V70.38H218.395V71.184H220.735V74.484H221.731V68.136H220.735ZM227.227 74.472C228.847 74.124 230.539 73.056 231.223 71.568C231.907 73.044 233.611 74.1 235.255 74.424L235.651 73.632C233.779 73.332 231.727 71.856 231.727 70.14V69.912H235.291V69.108H227.143V69.912H230.707V70.14C230.707 71.856 228.667 73.356 226.807 73.668L227.227 74.472ZM231.715 76.692V74.088H230.731V76.692H226.339V77.508H236.107V76.692H231.715ZM244.206 69.444H241.434V68.124H240.45V69.444H237.666V70.236H244.206V69.444ZM239.286 72.84C239.286 72.084 239.958 71.604 240.942 71.604C241.914 71.604 242.586 72.084 242.586 72.84C242.586 73.584 241.914 74.064 240.942 74.064C239.958 74.064 239.286 73.584 239.286 72.84ZM241.434 74.808C242.706 74.652 243.522 73.908 243.522 72.84C243.522 71.628 242.478 70.848 240.942 70.848C239.406 70.848 238.35 71.628 238.35 72.84C238.35 73.92 239.178 74.664 240.45 74.82V75.972C239.382 76.008 238.35 76.02 237.438 76.02L237.582 76.848C239.562 76.848 242.154 76.812 244.554 76.416L244.482 75.684C243.498 75.816 242.454 75.888 241.434 75.936V74.808ZM245.166 68.124V78.888H246.15V68.124H245.166ZM259.675 68.124H258.691V74.304H259.675V68.124ZM255.487 72.432H252.379V69.6H255.487V72.432ZM256.447 68.82H251.419V73.224H256.447V68.82ZM259.927 75.792V75.036H256.771V73.992H255.775V75.036H252.619V75.792H255.763C255.751 76.86 254.035 77.88 252.199 78.096L252.523 78.852C254.143 78.624 255.631 77.904 256.279 76.884C256.915 77.88 258.355 78.624 259.975 78.852L260.311 78.096C258.463 77.868 256.795 76.824 256.783 75.792H259.927ZM266.455 71.616H271.951V73.596H266.455V71.616ZM269.695 76.704V74.388H272.911V68.892H271.951V70.812H266.455V68.892H265.483V74.388H268.699V76.704H264.331V77.508H274.087V76.704H269.695ZM281.622 69.252H278.994V68.016H278.01V69.252H275.382V70.044H281.622V69.252ZM276.942 72.516C276.942 71.82 277.59 71.34 278.502 71.34C279.414 71.34 280.062 71.82 280.062 72.516C280.062 73.212 279.414 73.692 278.502 73.692C277.59 73.692 276.942 73.212 276.942 72.516ZM280.986 72.516C280.986 71.364 279.954 70.596 278.502 70.596C277.038 70.596 276.006 71.364 276.006 72.516C276.006 73.668 277.038 74.424 278.502 74.424C279.954 74.424 280.986 73.668 280.986 72.516ZM278.202 75.996H283.278V77.952H278.202V75.996ZM277.242 78.744H284.238V75.216H277.242V78.744ZM283.242 68.136V71.4H281.454V72.204H283.242V74.64H284.238V68.136H283.242ZM292.625 73.188C291.077 72.66 290.021 71.316 290.021 69.864V68.676H289.037V69.78C289.037 71.424 287.993 72.888 286.361 73.476L286.877 74.256C288.137 73.776 289.097 72.792 289.541 71.532C290.021 72.636 290.945 73.524 292.109 73.956L292.625 73.188ZM291.341 78.108C289.745 78.108 288.773 77.664 288.773 76.92C288.773 76.164 289.745 75.72 291.341 75.72C292.925 75.72 293.897 76.164 293.897 76.92C293.897 77.664 292.925 78.108 291.341 78.108ZM291.341 74.952C289.145 74.952 287.789 75.66 287.789 76.92C287.789 78.168 289.145 78.876 291.341 78.876C293.525 78.876 294.881 78.168 294.881 76.92C294.881 75.66 293.525 74.952 291.341 74.952ZM294.761 70.908V68.136H293.777V74.652H294.761V71.724H296.357V70.908H294.761ZM303.677 72.444C302.273 72.72 301.049 72.804 298.925 72.804V69.636H302.681V68.844H297.941V73.62H298.781C301.037 73.62 302.309 73.536 303.785 73.236L303.677 72.444ZM300.005 75.576H304.829V77.94H300.005V75.576ZM299.045 78.732H305.801V74.796H299.045V78.732ZM307.397 70.752H305.801V68.112H304.817V74.22H305.801V71.568H307.397V70.752ZM117.468 84.124H116.484V92.02H117.468V84.124ZM115.116 89.488C113.52 88.9 112.428 87.436 112.428 85.816V84.724H111.444V85.816C111.444 87.496 110.364 89.056 108.744 89.68L109.26 90.484C110.52 89.956 111.492 88.912 111.948 87.604C112.428 88.828 113.376 89.8 114.6 90.268L115.116 89.488ZM111.528 93.844V91.288H110.544V94.648H117.792V93.844H111.528ZM129.407 89.512H127.751C128.075 87.808 128.075 86.584 128.075 85.612V84.808H120.911V85.624H127.103C127.103 86.584 127.103 87.808 126.767 89.512H119.687V90.316H122.183V94.876H123.167V90.316H125.867V94.876H126.839V90.316H129.407V89.512ZM139.368 89.188C137.82 88.66 136.764 87.316 136.764 85.864V84.676H135.78V85.78C135.78 87.424 134.736 88.888 133.104 89.476L133.62 90.256C134.88 89.776 135.84 88.792 136.284 87.532C136.764 88.636 137.688 89.524 138.852 89.956L139.368 89.188ZM138.084 94.108C136.488 94.108 135.516 93.664 135.516 92.92C135.516 92.164 136.488 91.72 138.084 91.72C139.668 91.72 140.64 92.164 140.64 92.92C140.64 93.664 139.668 94.108 138.084 94.108ZM138.084 90.952C135.888 90.952 134.532 91.66 134.532 92.92C134.532 94.168 135.888 94.876 138.084 94.876C140.268 94.876 141.624 94.168 141.624 92.92C141.624 91.66 140.268 90.952 138.084 90.952ZM141.504 86.908V84.136H140.52V90.652H141.504V87.724H143.1V86.908H141.504ZM150.383 87.52H147.707V85.264H150.383V87.52ZM146.723 87.52H145.139V88.312H152.951V87.52H151.367V85.264H152.999V84.472H145.103V85.264H146.723V87.52ZM151.775 93.952H146.351V92.164H151.775V93.952ZM153.923 90.124V89.332H144.191V90.124H148.571V91.384H145.391V94.744H152.735V91.384H149.555V90.124H153.923ZM158.831 87.532C158.831 86.476 159.623 85.732 160.679 85.732C161.735 85.732 162.527 86.476 162.527 87.532C162.527 88.588 161.735 89.332 160.679 89.332C159.623 89.332 158.831 88.588 158.831 87.532ZM163.487 87.532C163.487 85.972 162.287 84.88 160.679 84.88C159.071 84.88 157.871 85.972 157.871 87.532C157.871 89.092 159.071 90.184 160.679 90.184C162.287 90.184 163.487 89.092 163.487 87.532ZM160.307 91.24H159.323V94.648H166.499V93.844H160.307V91.24ZM166.019 87.4V84.124H165.035V92.044H166.019V88.216H167.603V87.4H166.019ZM170.218 85.432H169.234V92.092H169.918C171.082 92.092 172.318 92.032 173.77 91.756L173.674 90.904C172.39 91.156 171.25 91.228 170.218 91.24V85.432ZM176.89 84.124V88.504H175.366V84.364H174.442V94.336H175.366V89.32H176.89V94.876H177.838V84.124H176.89ZM191.003 84.124H190.019V90.304H191.003V84.124ZM186.815 88.432H183.707V85.6H186.815V88.432ZM187.775 84.82H182.747V89.224H187.775V84.82ZM191.255 91.792V91.036H188.099V89.992H187.103V91.036H183.947V91.792H187.091C187.079 92.86 185.363 93.88 183.527 94.096L183.851 94.852C185.471 94.624 186.959 93.904 187.607 92.884C188.243 93.88 189.683 94.624 191.303 94.852L191.639 94.096C189.791 93.868 188.123 92.824 188.111 91.792H191.255ZM196.235 85.276V86.092H200.183C199.955 88.636 198.479 90.7 195.731 92.08L196.271 92.848C199.751 91.108 201.155 88.336 201.155 85.276H196.235ZM205.667 88.492H203.939V84.124H202.955V94.888H203.939V89.308H205.667V88.492ZM214.547 84.136V89.908H215.531V84.136H214.547ZM208.595 90.436V94.744H215.531V90.436H214.559V91.756H209.567V90.436H208.595ZM209.567 92.524H214.559V93.952H209.567V92.524ZM209.747 84.64C208.127 84.64 206.951 85.648 206.951 87.112C206.951 88.6 208.127 89.596 209.747 89.596C211.379 89.596 212.567 88.6 212.567 87.112C212.567 85.648 211.379 84.64 209.747 84.64ZM209.747 85.456C210.839 85.456 211.607 86.14 211.607 87.112C211.607 88.096 210.839 88.78 209.747 88.78C208.679 88.78 207.911 88.096 207.911 87.112C207.911 86.14 208.679 85.456 209.747 85.456Z" fill="#5C5C5C"/>
<rect y="106" width="327" height="1" fill="#CCCCCC"/>
<path d="M23.4234 185.228C21.4674 184.94 19.5474 183.608 19.5474 182.108V181.508H18.5154V182.108C18.5154 183.644 16.6194 184.94 14.6634 185.228L15.0594 186.02C16.7394 185.732 18.3594 184.808 19.0314 183.5C19.7274 184.796 21.3474 185.732 23.0154 186.02L23.4234 185.228ZM23.8914 187.184H14.1714V188H18.5154V191.9H19.4994V188H23.9034L23.8914 187.184ZM31.7865 186.032C30.2025 185.54 29.0745 184.28 29.0745 182.864V182.624H31.5105V181.82H25.6065V182.624H28.0665V182.864C28.0665 184.34 26.9625 185.684 25.3305 186.2L25.8345 186.98C27.1185 186.536 28.1145 185.6 28.5825 184.412C29.0745 185.528 30.0705 186.392 31.3065 186.788L31.7865 186.032ZM33.0585 190.94H28.0665V189.548H33.0585V190.94ZM33.0585 188.78H28.0665V187.472H27.0945V191.744H34.0305V187.472H33.0585V188.78ZM33.0465 181.124V186.956H34.0305V181.124H33.0465ZM37.2422 188.188C37.6816 188.188 38.0215 187.848 38.0215 187.402C38.0215 186.963 37.6816 186.623 37.2422 186.623C36.8086 186.623 36.4629 186.963 36.4629 187.402C36.4629 187.848 36.8086 188.188 37.2422 188.188ZM47.3428 181.124V191.912H48.3268V181.124H47.3428ZM42.6508 181.952C41.0548 181.952 39.9148 183.416 39.9148 185.708C39.9148 188 41.0548 189.464 42.6508 189.464C44.2468 189.464 45.3868 188 45.3868 185.708C45.3868 183.416 44.2468 181.952 42.6508 181.952ZM42.6508 182.84C43.6948 182.84 44.4388 183.968 44.4388 185.708C44.4388 187.46 43.6948 188.588 42.6508 188.588C41.5948 188.588 40.8508 187.46 40.8508 185.708C40.8508 183.968 41.5948 182.84 42.6508 182.84ZM55.4179 191.12C53.7259 191.12 52.7299 190.7 52.7299 189.968C52.7299 189.236 53.7259 188.816 55.4179 188.816C57.0979 188.816 58.1059 189.236 58.1059 189.968C58.1059 190.7 57.0979 191.12 55.4179 191.12ZM55.4179 188.048C53.1139 188.048 51.7339 188.732 51.7339 189.968C51.7339 191.204 53.1139 191.876 55.4179 191.876C57.7339 191.876 59.1019 191.204 59.1019 189.968C59.1019 188.732 57.7339 188.048 55.4179 188.048ZM53.9299 185.192C54.3739 185.264 54.8779 185.312 55.4179 185.312C55.9699 185.312 56.4739 185.264 56.9179 185.192V186.452H53.9299V185.192ZM52.6459 183.32C52.6459 182.54 53.7019 182.084 55.4179 182.084C57.1339 182.084 58.1899 182.54 58.1899 183.32C58.1899 184.088 57.1339 184.556 55.4179 184.556C53.7019 184.556 52.6459 184.088 52.6459 183.32ZM57.8899 186.452V184.928C58.7179 184.592 59.1979 184.04 59.1979 183.32C59.1979 182.06 57.7579 181.316 55.4179 181.316C53.0899 181.316 51.6379 182.06 51.6379 183.32C51.6379 184.052 52.1059 184.592 52.9579 184.94V186.452H50.5459V187.244H60.2899V186.452H57.8899ZM70.4184 182.336H67.7304V181.028H66.7464V182.336H64.0704V183.128H70.4184V182.336ZM65.6064 185.564C65.6064 184.868 66.2544 184.412 67.2384 184.412C68.2224 184.412 68.8824 184.868 68.8824 185.564C68.8824 186.272 68.2224 186.728 67.2384 186.728C66.2544 186.728 65.6064 186.272 65.6064 185.564ZM69.8184 185.564C69.8184 184.412 68.7744 183.668 67.2384 183.668C65.7024 183.668 64.6704 184.412 64.6704 185.564C64.6704 186.728 65.7024 187.472 67.2384 187.472C68.7744 187.472 69.8184 186.728 69.8184 185.564ZM69.0144 191.12C67.4424 191.12 66.4824 190.712 66.4824 190.016C66.4824 189.32 67.4424 188.912 69.0144 188.912C70.5864 188.912 71.5464 189.32 71.5464 190.016C71.5464 190.712 70.5864 191.12 69.0144 191.12ZM69.0144 188.156C66.8424 188.156 65.5104 188.828 65.5104 190.016C65.5104 191.192 66.8424 191.876 69.0144 191.876C71.1744 191.876 72.5184 191.192 72.5184 190.016C72.5184 188.828 71.1744 188.156 69.0144 188.156ZM72.3864 184.112V181.124H71.4024V188.048H72.3864V184.928H73.9704V184.112H72.3864ZM76.1535 189.284H82.6215V191.9H83.6055V188.492H76.1535V189.284ZM77.2815 182.348H82.5855V184.436H77.2815V182.348ZM80.4375 186.584V185.216H83.5575V181.568H76.3215V185.216H79.4535V186.584H75.0615V187.376H84.8055V186.584H80.4375Z" fill="#5C5C5C"/>
<rect x="99" y="107" width="1" height="160" fill="#CCCCCC"/>
<path d="M110.795 127H112.078V118.545H110.783L108.557 120.127V121.416L110.766 119.846H110.795V127ZM114.814 127.064C115.242 127.064 115.582 126.725 115.582 126.297C115.582 125.869 115.242 125.529 114.814 125.529C114.387 125.529 114.047 125.869 114.047 126.297C114.047 126.725 114.387 127.064 114.814 127.064ZM119.239 118.516V119.32H122.467C122.323 121.552 121.303 123.496 118.831 124.876L119.407 125.584C122.467 123.856 123.439 121.288 123.439 118.516H119.239ZM127.015 117.124V121.456H125.551V117.412H124.627V127.348H125.551V122.26H127.015V127.888H127.963V117.124H127.015ZM138.702 117.136H137.718V124.996H138.702V117.136ZM131.082 120.52C131.082 119.476 131.874 118.732 132.918 118.732C133.986 118.732 134.778 119.476 134.778 120.52C134.778 121.588 133.986 122.332 132.918 122.332C131.874 122.332 131.082 121.588 131.082 120.52ZM135.738 120.52C135.738 118.972 134.526 117.88 132.918 117.88C131.322 117.88 130.122 118.972 130.122 120.52C130.122 122.08 131.322 123.184 132.918 123.184C134.526 123.184 135.738 122.08 135.738 120.52ZM132.762 126.844V124.192H131.778V127.648H139.026V126.844H132.762ZM146.657 119.92V120.724H148.781V123.544H149.777V117.136H148.781V119.92H146.657ZM147.257 122.368C145.697 121.816 144.641 120.46 144.641 119.08V118.708H147.005V117.916H141.257V118.708H143.657V119.08C143.657 120.628 142.553 122.08 140.945 122.668L141.461 123.448C142.721 122.968 143.717 121.96 144.173 120.712C144.641 121.816 145.565 122.704 146.765 123.136L147.257 122.368ZM146.225 127.12C144.605 127.12 143.621 126.664 143.621 125.884C143.621 125.104 144.605 124.636 146.225 124.636C147.845 124.636 148.829 125.104 148.829 125.884C148.829 126.664 147.845 127.12 146.225 127.12ZM146.225 123.88C144.017 123.88 142.637 124.612 142.637 125.884C142.637 127.156 144.017 127.888 146.225 127.888C148.433 127.888 149.813 127.156 149.813 125.884C149.813 124.612 148.433 123.88 146.225 123.88ZM154.073 120.616H159.569V122.596H154.073V120.616ZM157.312 125.704V123.388H160.529V117.892H159.569V119.812H154.073V117.892H153.101V123.388H156.317V125.704H151.949V126.508H161.705V125.704H157.312ZM114.961 140.141V138.998H111.117V140.141H114.961ZM126.538 133.124V143.912H127.522V133.124H126.538ZM121.846 133.952C120.25 133.952 119.11 135.416 119.11 137.708C119.11 140 120.25 141.464 121.846 141.464C123.442 141.464 124.582 140 124.582 137.708C124.582 135.416 123.442 133.952 121.846 133.952ZM121.846 134.84C122.89 134.84 123.634 135.968 123.634 137.708C123.634 139.46 122.89 140.588 121.846 140.588C120.79 140.588 120.046 139.46 120.046 137.708C120.046 135.968 120.79 134.84 121.846 134.84ZM137.289 135.2H131.001V137.756H138.489V136.988H131.973V135.932H138.261V133.4H130.977V134.156H137.289V135.2ZM132.021 141.248H137.301V142.952H132.021V141.248ZM131.061 143.744H138.273V140.468H131.061V143.744ZM129.753 138.68V139.472H139.509V138.68H129.753ZM141.68 144.74L142.477 141.646H141.199L140.672 144.74H141.68ZM146.853 136.508C146.853 135.44 147.633 134.672 148.689 134.672C149.733 134.672 150.513 135.44 150.513 136.508C150.513 137.576 149.733 138.344 148.689 138.344C147.633 138.344 146.853 137.576 146.853 136.508ZM153.621 135.608V137.396H151.305C151.401 137.12 151.449 136.82 151.449 136.508C151.449 136.184 151.401 135.884 151.305 135.608H153.621ZM153.621 138.188V141.08H154.617V133.136H153.621V134.816H150.885C150.381 134.192 149.613 133.808 148.689 133.808C147.105 133.808 145.917 134.936 145.917 136.508C145.917 138.08 147.105 139.208 148.689 139.208C149.613 139.208 150.393 138.824 150.897 138.188H153.621ZM148.725 142.844V140.264H147.729V143.648H154.917V142.844H148.725ZM163.124 137.936C161.492 138.224 160.112 138.296 158.228 138.296V136.748H162.08V133.76H157.232V134.564H161.108V135.992H157.256V139.1H158.108C160.1 139.1 161.516 139.028 163.22 138.74L163.124 137.936ZM158.144 141.032H164.156V143.876H165.14V140.24H158.144V141.032ZM166.736 135.884H165.14V133.136H164.156V139.676H165.14V136.7H166.736V135.884ZM171.547 135.776H173.935V134.984H171.547V133.316H170.563V134.984H168.139V135.776H170.575V136.604C170.575 138.464 169.423 140.3 167.839 141.056L168.391 141.812C169.615 141.212 170.611 139.964 171.067 138.464C171.547 139.88 172.543 141.044 173.767 141.608L174.307 140.852C172.723 140.144 171.547 138.392 171.547 136.604V135.776ZM175.711 133.112V137.444H173.383V138.248H175.711V143.912H176.695V133.112H175.711ZM179.754 144.74L180.551 141.646H179.273L178.746 144.74H179.754ZM190.592 136.82H191.96V139.772H192.908V133.136H191.96V136.016H190.592V133.34H189.656V139.424H190.592V136.82ZM189.212 138.176C187.832 137.648 187.028 136.436 187.028 135.248V133.796H186.08V135.248C186.08 136.448 185.24 137.84 183.836 138.464L184.364 139.232C185.408 138.764 186.176 137.852 186.56 136.844C186.944 137.756 187.676 138.524 188.684 138.932L189.212 138.176ZM189.355 143.12C187.748 143.12 186.74 142.688 186.74 141.944C186.74 141.2 187.748 140.78 189.355 140.78C190.988 140.78 191.984 141.2 191.984 141.944C191.984 142.688 190.988 143.12 189.355 143.12ZM189.355 140.012C187.148 140.012 185.768 140.72 185.768 141.944C185.768 143.168 187.148 143.876 189.355 143.876C191.576 143.876 192.956 143.168 192.956 141.944C192.956 140.72 191.576 140.012 189.355 140.012ZM202.735 141.104H203.731V133.136H202.735V134.528H199.699V135.32H202.735V136.592H199.699V137.372H202.735V141.104ZM200.959 138.296C199.351 138.584 197.947 138.668 196.471 138.68V133.904H195.487V139.508H196.303C197.887 139.508 199.339 139.424 201.067 139.112L200.959 138.296ZM197.815 142.844V140.42H196.831V143.648H204.007V142.844H197.815ZM211.59 138.248V138.896H213.726V139.46H214.71V133.136H213.726V138.248H211.59ZM209.346 134.024C210.402 134.024 211.074 134.384 211.074 134.96C211.074 135.512 210.402 135.884 209.346 135.884C208.302 135.884 207.618 135.512 207.618 134.96C207.618 134.384 208.302 134.024 209.346 134.024ZM209.346 136.556C210.942 136.556 211.998 135.944 211.998 134.96C211.998 133.952 210.942 133.34 209.346 133.34C207.75 133.34 206.694 133.952 206.694 134.96C206.694 135.944 207.75 136.556 209.346 136.556ZM208.794 139.496H209.778V137.84C210.822 137.78 211.89 137.696 212.934 137.552L212.874 136.904C210.57 137.168 207.942 137.18 205.866 137.18L205.986 137.924C206.85 137.924 207.798 137.912 208.794 137.888V139.496ZM208.494 143.036V142.1H214.71V139.856H207.498V140.564H213.75V141.428H207.522V143.768H215.082V143.036H208.494ZM225.773 133.124H224.789V138.644H225.773V133.124ZM218.141 135.908C218.141 134.972 218.921 134.312 219.965 134.312C221.021 134.312 221.789 134.972 221.789 135.908C221.789 136.832 221.021 137.492 219.965 137.492C218.921 137.492 218.141 136.832 218.141 135.908ZM222.749 135.908C222.749 134.48 221.573 133.508 219.965 133.508C218.357 133.508 217.193 134.48 217.193 135.908C217.193 137.324 218.357 138.284 219.965 138.284C221.573 138.284 222.749 137.324 222.749 135.908ZM219.797 142.964V141.776H225.773V139.172H218.801V139.952H224.801V141.044H218.825V143.744H226.133V142.964H219.797ZM228.867 144.74L229.664 141.646H228.387L227.859 144.74H228.867ZM240.809 139.496H241.805V133.136H240.809V135.416H238.469V136.22H240.809V139.496ZM239.249 138.224C237.677 137.672 236.633 136.34 236.633 134.804V133.736H235.649V134.84C235.649 136.484 234.581 137.924 232.925 138.512L233.441 139.316C234.737 138.824 235.709 137.852 236.165 136.58C236.633 137.696 237.545 138.548 238.721 138.992L239.249 138.224ZM238.253 143.096C236.633 143.096 235.649 142.628 235.649 141.848C235.649 141.056 236.633 140.588 238.253 140.588C239.873 140.588 240.857 141.056 240.857 141.848C240.857 142.628 239.873 143.096 238.253 143.096ZM238.253 139.82C236.045 139.82 234.665 140.552 234.665 141.848C234.665 143.132 236.045 143.876 238.253 143.876C240.461 143.876 241.841 143.132 241.841 141.848C241.841 140.552 240.461 139.82 238.253 139.82ZM251.848 135.428V136.616H249.364V135.428H251.848ZM248.392 137.528H245.488V135.932H248.392V137.528ZM249.364 137.384H251.848V138.752H252.832V133.136H251.848V134.66H249.364V133.64H248.392V135.164H245.488V133.628H244.516V138.32H249.364V137.384ZM246.892 142.964V141.824H252.832V139.268H245.896V140.048H251.86V141.08H245.92V143.744H253.24V142.964H246.892ZM108.586 153.023V153.035H109.828V153.018C109.828 152.139 110.525 151.471 111.451 151.471C112.33 151.471 113.01 152.068 113.01 152.818C113.01 153.48 112.74 153.926 111.709 154.998L108.656 158.109V159H114.439V157.893H110.426V157.863L112.541 155.736C113.777 154.471 114.305 153.738 114.305 152.754C114.305 151.412 113.104 150.387 111.492 150.387C109.811 150.387 108.586 151.5 108.586 153.023ZM116.525 159.064C116.953 159.064 117.293 158.725 117.293 158.297C117.293 157.869 116.953 157.529 116.525 157.529C116.098 157.529 115.758 157.869 115.758 158.297C115.758 158.725 116.098 159.064 116.525 159.064ZM122.666 152.616H128.162V154.596H122.666V152.616ZM125.906 157.704V155.388H129.122V149.892H128.162V151.812H122.666V149.892H121.694V155.388H124.91V157.704H120.542V158.508H130.298V157.704H125.906ZM137.833 150.252H135.205V149.016H134.221V150.252H131.593V151.044H137.833V150.252ZM133.153 153.516C133.153 152.82 133.801 152.34 134.713 152.34C135.625 152.34 136.273 152.82 136.273 153.516C136.273 154.212 135.625 154.692 134.713 154.692C133.801 154.692 133.153 154.212 133.153 153.516ZM137.197 153.516C137.197 152.364 136.165 151.596 134.713 151.596C133.249 151.596 132.217 152.364 132.217 153.516C132.217 154.668 133.249 155.424 134.713 155.424C136.165 155.424 137.197 154.668 137.197 153.516ZM134.413 156.996H139.489V158.952H134.413V156.996ZM133.453 159.744H140.449V156.216H133.453V159.744ZM139.453 149.136V152.4H137.665V153.204H139.453V155.64H140.449V149.136H139.453ZM143.196 150.276V151.092H147.144C146.916 153.636 145.44 155.7 142.692 157.08L143.232 157.848C146.712 156.108 148.116 153.336 148.116 150.276H143.196ZM152.628 153.492H150.9V149.124H149.916V159.888H150.9V154.308H152.628V153.492ZM161.507 149.136V154.908H162.491V149.136H161.507ZM155.555 155.436V159.744H162.491V155.436H161.519V156.756H156.527V155.436H155.555ZM156.527 157.524H161.519V158.952H156.527V157.524ZM156.707 149.64C155.087 149.64 153.911 150.648 153.911 152.112C153.911 153.6 155.087 154.596 156.707 154.596C158.339 154.596 159.527 153.6 159.527 152.112C159.527 150.648 158.339 149.64 156.707 149.64ZM156.707 150.456C157.799 150.456 158.567 151.14 158.567 152.112C158.567 153.096 157.799 153.78 156.707 153.78C155.639 153.78 154.871 153.096 154.871 152.112C154.871 151.14 155.639 150.456 156.707 150.456ZM170.447 151.92V152.724H172.571V155.544H173.567V149.136H172.571V151.92H170.447ZM171.047 154.368C169.487 153.816 168.431 152.46 168.431 151.08V150.708H170.795V149.916H165.047V150.708H167.447V151.08C167.447 152.628 166.343 154.08 164.735 154.668L165.251 155.448C166.511 154.968 167.507 153.96 167.963 152.712C168.431 153.816 169.355 154.704 170.555 155.136L171.047 154.368ZM170.015 159.12C168.395 159.12 167.411 158.664 167.411 157.884C167.411 157.104 168.395 156.636 170.015 156.636C171.635 156.636 172.619 157.104 172.619 157.884C172.619 158.664 171.635 159.12 170.015 159.12ZM170.015 155.88C167.807 155.88 166.427 156.612 166.427 157.884C166.427 159.156 167.807 159.888 170.015 159.888C172.223 159.888 173.603 159.156 173.603 157.884C173.603 156.612 172.223 155.88 170.015 155.88ZM177.862 152.616H183.358V154.596H177.862V152.616ZM181.102 157.704V155.388H184.318V149.892H183.358V151.812H177.862V149.892H176.89V155.388H180.106V157.704H175.738V158.508H185.494V157.704H181.102ZM114.961 172.141V170.998H111.117V172.141H114.961ZM120.838 168.616H126.334V170.596H120.838V168.616ZM124.078 173.704V171.388H127.294V165.892H126.334V167.812H120.838V165.892H119.866V171.388H123.082V173.704H118.714V174.508H128.47V173.704H124.078ZM136.005 166.252H133.377V165.016H132.393V166.252H129.765V167.044H136.005V166.252ZM131.325 169.516C131.325 168.82 131.973 168.34 132.885 168.34C133.797 168.34 134.445 168.82 134.445 169.516C134.445 170.212 133.797 170.692 132.885 170.692C131.973 170.692 131.325 170.212 131.325 169.516ZM135.369 169.516C135.369 168.364 134.337 167.596 132.885 167.596C131.421 167.596 130.389 168.364 130.389 169.516C130.389 170.668 131.421 171.424 132.885 171.424C134.337 171.424 135.369 170.668 135.369 169.516ZM132.585 172.996H137.661V174.952H132.585V172.996ZM131.625 175.744H138.621V172.216H131.625V175.744ZM137.625 165.136V168.4H135.837V169.204H137.625V171.64H138.621V165.136H137.625ZM144.404 166.06H143.432V167.992C143.432 169.948 142.208 172.012 140.66 172.804L141.248 173.596C142.46 172.948 143.456 171.604 143.924 170.032C144.416 171.508 145.388 172.768 146.528 173.38L147.14 172.6C145.628 171.844 144.404 169.888 144.404 167.992V166.06ZM150.848 169.492H149.072V165.136H148.088V175.888H149.072V170.308H150.848V169.492ZM157.579 167.92V168.724H159.703V171.544H160.699V165.136H159.703V167.92H157.579ZM158.179 170.368C156.619 169.816 155.563 168.46 155.563 167.08V166.708H157.927V165.916H152.179V166.708H154.579V167.08C154.579 168.628 153.475 170.08 151.867 170.668L152.383 171.448C153.643 170.968 154.639 169.96 155.095 168.712C155.563 169.816 156.487 170.704 157.687 171.136L158.179 170.368ZM157.147 175.12C155.527 175.12 154.543 174.664 154.543 173.884C154.543 173.104 155.527 172.636 157.147 172.636C158.767 172.636 159.751 173.104 159.751 173.884C159.751 174.664 158.767 175.12 157.147 175.12ZM157.147 171.88C154.939 171.88 153.559 172.612 153.559 173.884C153.559 175.156 154.939 175.888 157.147 175.888C159.355 175.888 160.735 175.156 160.735 173.884C160.735 172.612 159.355 171.88 157.147 171.88ZM164.994 168.616H170.49V170.596H164.994V168.616ZM168.234 173.704V171.388H171.45V165.892H170.49V167.812H164.994V165.892H164.022V171.388H167.238V173.704H162.87V174.508H172.626V173.704H168.234ZM174.797 176.74L175.594 173.646H174.316L173.789 176.74H174.797ZM180.99 168.616H186.486V170.596H180.99V168.616ZM184.23 173.704V171.388H187.446V165.892H186.486V167.812H180.99V165.892H180.018V171.388H183.234V173.704H178.866V174.508H188.622V173.704H184.23ZM196.158 166.252H193.53V165.016H192.546V166.252H189.918V167.044H196.158V166.252ZM191.478 169.516C191.478 168.82 192.126 168.34 193.038 168.34C193.95 168.34 194.598 168.82 194.598 169.516C194.598 170.212 193.95 170.692 193.038 170.692C192.126 170.692 191.478 170.212 191.478 169.516ZM195.522 169.516C195.522 168.364 194.49 167.596 193.038 167.596C191.574 167.596 190.542 168.364 190.542 169.516C190.542 170.668 191.574 171.424 193.038 171.424C194.49 171.424 195.522 170.668 195.522 169.516ZM192.738 172.996H197.814V174.952H192.738V172.996ZM191.778 175.744H198.774V172.216H191.778V175.744ZM197.778 165.136V168.4H195.99V169.204H197.778V171.64H198.774V165.136H197.778ZM207.161 170.188C205.613 169.66 204.557 168.316 204.557 166.864V165.676H203.573V166.78C203.573 168.424 202.529 169.888 200.897 170.476L201.413 171.256C202.673 170.776 203.633 169.792 204.077 168.532C204.557 169.636 205.481 170.524 206.645 170.956L207.161 170.188ZM205.877 175.108C204.281 175.108 203.309 174.664 203.309 173.92C203.309 173.164 204.281 172.72 205.877 172.72C207.461 172.72 208.433 173.164 208.433 173.92C208.433 174.664 207.461 175.108 205.877 175.108ZM205.877 171.952C203.681 171.952 202.325 172.66 202.325 173.92C202.325 175.168 203.681 175.876 205.877 175.876C208.061 175.876 209.417 175.168 209.417 173.92C209.417 172.66 208.061 171.952 205.877 171.952ZM209.297 167.908V165.136H208.313V171.652H209.297V168.724H210.893V167.908H209.297ZM218.176 168.52H215.5V166.264H218.176V168.52ZM214.516 168.52H212.932V169.312H220.744V168.52H219.16V166.264H220.792V165.472H212.896V166.264H214.516V168.52ZM219.568 174.952H214.144V173.164H219.568V174.952ZM221.716 171.124V170.332H211.984V171.124H216.364V172.384H213.184V175.744H220.528V172.384H217.348V171.124H221.716ZM228.771 167.92V168.724H230.895V171.544H231.891V165.136H230.895V167.92H228.771ZM229.371 170.368C227.811 169.816 226.755 168.46 226.755 167.08V166.708H229.119V165.916H223.371V166.708H225.771V167.08C225.771 168.628 224.667 170.08 223.059 170.668L223.575 171.448C224.835 170.968 225.831 169.96 226.287 168.712C226.755 169.816 227.679 170.704 228.879 171.136L229.371 170.368ZM228.339 175.12C226.719 175.12 225.735 174.664 225.735 173.884C225.735 173.104 226.719 172.636 228.339 172.636C229.959 172.636 230.943 173.104 230.943 173.884C230.943 174.664 229.959 175.12 228.339 175.12ZM228.339 171.88C226.131 171.88 224.751 172.612 224.751 173.884C224.751 175.156 226.131 175.888 228.339 175.888C230.547 175.888 231.927 175.156 231.927 173.884C231.927 172.612 230.547 171.88 228.339 171.88ZM236.186 168.616H241.682V170.596H236.186V168.616ZM239.426 173.704V171.388H242.642V165.892H241.682V167.812H236.186V165.892H235.214V171.388H238.43V173.704H234.062V174.508H243.818V173.704H239.426ZM114.961 188.141V186.998H111.117V188.141H114.961ZM124.762 184.124H123.166C123.262 183.584 123.31 183.044 123.31 182.492H119.182V183.296H122.338C122.17 185.552 121.018 187.484 118.702 188.864L119.278 189.56C121.318 188.348 122.482 186.728 122.986 184.916H124.762V186.812H122.818V187.616H124.762V191.336H125.698V181.412H124.762V184.124ZM126.922 181.124V191.876H127.858V181.124H126.922ZM130.917 184.316C130.917 183.296 131.685 182.6 132.765 182.6C133.833 182.6 134.613 183.296 134.613 184.316C134.613 185.324 133.833 186.032 132.765 186.032C131.685 186.032 130.917 185.324 130.917 184.316ZM135.573 184.316C135.573 182.804 134.385 181.772 132.765 181.772C131.133 181.772 129.957 182.804 129.957 184.316C129.957 185.816 131.133 186.86 132.765 186.86C134.385 186.86 135.573 185.816 135.573 184.316ZM131.109 188.828H137.121V191.888H138.105V188.024H131.109V188.828ZM139.665 183.584V182.768H138.105V181.136H137.121V187.52H138.105V185.876H139.665V185.072H138.105V183.584H139.665ZM144.416 183.044H146.804V182.228H140.984V183.044H143.444V184.412C143.444 186.236 142.148 188.276 140.612 189.044L141.188 189.824C142.4 189.2 143.444 187.832 143.936 186.26C144.428 187.7 145.436 188.96 146.636 189.56L147.2 188.768C145.64 188.036 144.416 186.128 144.416 184.412V183.044ZM150.848 185.468H149.072V181.136H148.088V191.888H149.072V186.296H150.848V185.468ZM152.32 192.805L155.32 182.545H154.195L151.195 192.805H152.32ZM158.368 183.08H160.168V188.312C159.556 188.336 158.956 188.36 158.368 188.372V183.08ZM161.128 183.08H162.316V182.288H156.22V183.08H157.42V188.384C156.904 188.396 156.412 188.396 155.956 188.396L156.064 189.224C158.02 189.212 160.612 189.188 162.928 188.816L162.868 188.096C162.304 188.168 161.716 188.228 161.128 188.252V183.08ZM163.804 181.136V191.888H164.788V181.136H163.804ZM169.119 184.616H174.615V186.596H169.119V184.616ZM172.359 189.704V187.388H175.575V181.892H174.615V183.812H169.119V181.892H168.147V187.388H171.363V189.704H166.995V190.508H176.751V189.704H172.359ZM184.286 182.252H181.658V181.016H180.674V182.252H178.046V183.044H184.286V182.252ZM179.606 185.516C179.606 184.82 180.254 184.34 181.166 184.34C182.078 184.34 182.726 184.82 182.726 185.516C182.726 186.212 182.078 186.692 181.166 186.692C180.254 186.692 179.606 186.212 179.606 185.516ZM183.65 185.516C183.65 184.364 182.618 183.596 181.166 183.596C179.702 183.596 178.67 184.364 178.67 185.516C178.67 186.668 179.702 187.424 181.166 187.424C182.618 187.424 183.65 186.668 183.65 185.516ZM180.866 188.996H185.942V190.952H180.866V188.996ZM179.906 191.744H186.902V188.216H179.906V191.744ZM185.906 181.136V184.4H184.118V185.204H185.906V187.64H186.902V181.136H185.906ZM192.698 183.044H195.086V182.228H189.266V183.044H191.726V184.412C191.726 186.236 190.43 188.276 188.894 189.044L189.47 189.824C190.682 189.2 191.726 187.832 192.218 186.26C192.71 187.7 193.718 188.96 194.918 189.56L195.482 188.768C193.922 188.036 192.698 186.128 192.698 184.412V183.044ZM199.13 185.468H197.354V181.136H196.37V191.888H197.354V186.296H199.13V185.468ZM203.605 181.916C201.937 181.916 200.725 182.936 200.725 184.448C200.725 185.948 201.937 186.98 203.605 186.98C205.285 186.98 206.485 185.948 206.485 184.448C206.485 182.936 205.285 181.916 203.605 181.916ZM203.605 182.756C204.721 182.756 205.525 183.44 205.525 184.448C205.525 185.444 204.721 186.14 203.605 186.14C202.501 186.14 201.685 185.444 201.685 184.448C201.685 183.44 202.501 182.756 203.605 182.756ZM207.901 181.124V191.912H208.885V181.124H207.901ZM200.305 189.548C202.249 189.548 204.853 189.524 207.277 189.08L207.193 188.348C204.841 188.708 202.141 188.72 200.185 188.72L200.305 189.548ZM221.461 187.496H222.457V181.136H221.461V183.416H219.121V184.22H221.461V187.496ZM219.901 186.224C218.329 185.672 217.285 184.34 217.285 182.804V181.736H216.301V182.84C216.301 184.484 215.233 185.924 213.577 186.512L214.093 187.316C215.389 186.824 216.361 185.852 216.817 184.58C217.285 185.696 218.197 186.548 219.373 186.992L219.901 186.224ZM218.905 191.096C217.285 191.096 216.301 190.628 216.301 189.848C216.301 189.056 217.285 188.588 218.905 188.588C220.525 188.588 221.509 189.056 221.509 189.848C221.509 190.628 220.525 191.096 218.905 191.096ZM218.905 187.82C216.697 187.82 215.317 188.552 215.317 189.848C215.317 191.132 216.697 191.876 218.905 191.876C221.113 191.876 222.493 191.132 222.493 189.848C222.493 188.552 221.113 187.82 218.905 187.82ZM229.068 185.936H226.092V182.732H229.068V185.936ZM232.5 183.668V185H230.028V183.668H232.5ZM230.028 185.792H232.5V187.496H233.496V181.136H232.5V182.876H230.028V181.94H225.12V186.716H230.028V185.792ZM229.932 191.108C228.324 191.108 227.34 190.64 227.34 189.848C227.34 189.056 228.324 188.588 229.932 188.588C231.564 188.588 232.548 189.056 232.548 189.848C232.548 190.64 231.564 191.108 229.932 191.108ZM229.932 187.82C227.724 187.82 226.356 188.552 226.356 189.848C226.356 191.132 227.724 191.876 229.932 191.876C232.152 191.876 233.532 191.132 233.532 189.848C233.532 188.552 232.152 187.82 229.932 187.82ZM114.961 204.141V202.998H111.117V204.141H114.961ZM120.838 200.616H126.334V202.596H120.838V200.616ZM124.078 205.704V203.388H127.294V197.892H126.334V199.812H120.838V197.892H119.866V203.388H123.082V205.704H118.714V206.508H128.47V205.704H124.078ZM136.005 198.252H133.377V197.016H132.393V198.252H129.765V199.044H136.005V198.252ZM131.325 201.516C131.325 200.82 131.973 200.34 132.885 200.34C133.797 200.34 134.445 200.82 134.445 201.516C134.445 202.212 133.797 202.692 132.885 202.692C131.973 202.692 131.325 202.212 131.325 201.516ZM135.369 201.516C135.369 200.364 134.337 199.596 132.885 199.596C131.421 199.596 130.389 200.364 130.389 201.516C130.389 202.668 131.421 203.424 132.885 203.424C134.337 203.424 135.369 202.668 135.369 201.516ZM132.585 204.996H137.661V206.952H132.585V204.996ZM131.625 207.744H138.621V204.216H131.625V207.744ZM137.625 197.136V200.4H135.837V201.204H137.625V203.64H138.621V197.136H137.625ZM144.488 203.712H146.948V205.752H144.488V203.712ZM147.92 205.752V203.712H149.6V202.908H142.976V201.18H149.348V197.916H141.98V198.72H148.388V200.388H142.004V203.712H143.516V205.752H140.78V206.556H150.56V205.752H147.92ZM160.545 200.94C158.829 201.276 157.293 201.384 155.769 201.396V197.628H154.797V202.224H155.637C157.245 202.224 158.853 202.104 160.665 201.744L160.545 200.94ZM161.649 206.952H156.801V205.524H161.649V206.952ZM161.649 204.732H156.801V203.304H155.829V207.744H162.621V203.304H161.649V204.732ZM164.229 199.536H162.633V197.136H161.637V202.728H162.633V200.352H164.229V199.536ZM173.156 197.136V202.908H174.14V197.136H173.156ZM167.204 203.436V207.744H174.14V203.436H173.168V204.756H168.176V203.436H167.204ZM168.176 205.524H173.168V206.952H168.176V205.524ZM168.356 197.64C166.736 197.64 165.56 198.648 165.56 200.112C165.56 201.6 166.736 202.596 168.356 202.596C169.988 202.596 171.176 201.6 171.176 200.112C171.176 198.648 169.988 197.64 168.356 197.64ZM168.356 198.456C169.448 198.456 170.216 199.14 170.216 200.112C170.216 201.096 169.448 201.78 168.356 201.78C167.288 201.78 166.52 201.096 166.52 200.112C166.52 199.14 167.288 198.456 168.356 198.456ZM182.095 199.92V200.724H184.219V203.544H185.215V197.136H184.219V199.92H182.095ZM182.695 202.368C181.135 201.816 180.079 200.46 180.079 199.08V198.708H182.443V197.916H176.695V198.708H179.095V199.08C179.095 200.628 177.991 202.08 176.383 202.668L176.899 203.448C178.159 202.968 179.155 201.96 179.611 200.712C180.079 201.816 181.003 202.704 182.203 203.136L182.695 202.368ZM181.663 207.12C180.043 207.12 179.059 206.664 179.059 205.884C179.059 205.104 180.043 204.636 181.663 204.636C183.283 204.636 184.267 205.104 184.267 205.884C184.267 206.664 183.283 207.12 181.663 207.12ZM181.663 203.88C179.455 203.88 178.075 204.612 178.075 205.884C178.075 207.156 179.455 207.888 181.663 207.888C183.871 207.888 185.251 207.156 185.251 205.884C185.251 204.612 183.871 203.88 181.663 203.88ZM189.51 200.616H195.006V202.596H189.51V200.616ZM192.75 205.704V203.388H195.966V197.892H195.006V199.812H189.51V197.892H188.538V203.388H191.754V205.704H187.386V206.508H197.142V205.704H192.75ZM114.961 220.141V218.998H111.117V220.141H114.961ZM120.838 216.616H126.334V218.596H120.838V216.616ZM124.078 221.704V219.388H127.294V213.892H126.334V215.812H120.838V213.892H119.866V219.388H123.082V221.704H118.714V222.508H128.47V221.704H124.078ZM136.005 214.252H133.377V213.016H132.393V214.252H129.765V215.044H136.005V214.252ZM131.325 217.516C131.325 216.82 131.973 216.34 132.885 216.34C133.797 216.34 134.445 216.82 134.445 217.516C134.445 218.212 133.797 218.692 132.885 218.692C131.973 218.692 131.325 218.212 131.325 217.516ZM135.369 217.516C135.369 216.364 134.337 215.596 132.885 215.596C131.421 215.596 130.389 216.364 130.389 217.516C130.389 218.668 131.421 219.424 132.885 219.424C134.337 219.424 135.369 218.668 135.369 217.516ZM132.585 220.996H137.661V222.952H132.585V220.996ZM131.625 223.744H138.621V220.216H131.625V223.744ZM137.625 213.136V216.4H135.837V217.204H137.625V219.64H138.621V213.136H137.625ZM144.488 219.712H146.948V221.752H144.488V219.712ZM147.92 221.752V219.712H149.6V218.908H142.976V217.18H149.348V213.916H141.98V214.72H148.388V216.388H142.004V219.712H143.516V221.752H140.78V222.556H150.56V221.752H147.92ZM162.861 217.024H156.525V215.944H162.513V215.2H156.525V214.18H162.801V213.412H155.541V217.792H162.861V217.024ZM155.349 221.428H161.757V223.9H162.741V220.648H155.349V221.428ZM154.257 218.812V219.604H164.001V218.812H154.257ZM166.472 216.316C166.472 215.296 167.24 214.6 168.32 214.6C169.388 214.6 170.168 215.296 170.168 216.316C170.168 217.324 169.388 218.032 168.32 218.032C167.24 218.032 166.472 217.324 166.472 216.316ZM171.128 216.316C171.128 214.804 169.94 213.772 168.32 213.772C166.688 213.772 165.512 214.804 165.512 216.316C165.512 217.816 166.688 218.86 168.32 218.86C169.94 218.86 171.128 217.816 171.128 216.316ZM166.664 220.828H172.676V223.888H173.66V220.024H166.664V220.828ZM175.22 215.584V214.768H173.66V213.136H172.676V219.52H173.66V217.876H175.22V217.072H173.66V215.584H175.22ZM182.095 215.92V216.724H184.219V219.544H185.215V213.136H184.219V215.92H182.095ZM182.695 218.368C181.135 217.816 180.079 216.46 180.079 215.08V214.708H182.443V213.916H176.695V214.708H179.095V215.08C179.095 216.628 177.991 218.08 176.383 218.668L176.899 219.448C178.159 218.968 179.155 217.96 179.611 216.712C180.079 217.816 181.003 218.704 182.203 219.136L182.695 218.368ZM181.663 223.12C180.043 223.12 179.059 222.664 179.059 221.884C179.059 221.104 180.043 220.636 181.663 220.636C183.283 220.636 184.267 221.104 184.267 221.884C184.267 222.664 183.283 223.12 181.663 223.12ZM181.663 219.88C179.455 219.88 178.075 220.612 178.075 221.884C178.075 223.156 179.455 223.888 181.663 223.888C183.871 223.888 185.251 223.156 185.251 221.884C185.251 220.612 183.871 219.88 181.663 219.88ZM189.51 216.616H195.006V218.596H189.51V216.616ZM192.75 221.704V219.388H195.966V213.892H195.006V215.812H189.51V213.892H188.538V219.388H191.754V221.704H187.386V222.508H197.142V221.704H192.75ZM114.961 236.141V234.998H111.117V236.141H114.961ZM120.838 232.616H126.334V234.596H120.838V232.616ZM124.078 237.704V235.388H127.294V229.892H126.334V231.812H120.838V229.892H119.866V235.388H123.082V237.704H118.714V238.508H128.47V237.704H124.078ZM136.005 230.252H133.377V229.016H132.393V230.252H129.765V231.044H136.005V230.252ZM131.325 233.516C131.325 232.82 131.973 232.34 132.885 232.34C133.797 232.34 134.445 232.82 134.445 233.516C134.445 234.212 133.797 234.692 132.885 234.692C131.973 234.692 131.325 234.212 131.325 233.516ZM135.369 233.516C135.369 232.364 134.337 231.596 132.885 231.596C131.421 231.596 130.389 232.364 130.389 233.516C130.389 234.668 131.421 235.424 132.885 235.424C134.337 235.424 135.369 234.668 135.369 233.516ZM132.585 236.996H137.661V238.952H132.585V236.996ZM131.625 239.744H138.621V236.216H131.625V239.744ZM137.625 229.136V232.4H135.837V233.204H137.625V235.64H138.621V229.136H137.625ZM149.458 233.444C148.054 233.72 146.83 233.804 144.706 233.804V230.636H148.462V229.844H143.722V234.62H144.562C146.818 234.62 148.09 234.536 149.566 234.236L149.458 233.444ZM145.786 236.576H150.61V238.94H145.786V236.576ZM144.826 239.732H151.582V235.796H144.826V239.732ZM153.178 231.752H151.582V229.112H150.598V235.22H151.582V232.568H153.178V231.752ZM156.393 232.616H161.889V234.596H156.393V232.616ZM159.633 237.704V235.388H162.849V229.892H161.889V231.812H156.393V229.892H155.421V235.388H158.637V237.704H154.269V238.508H164.025V237.704H159.633ZM171.056 231.92V232.724H173.18V235.544H174.176V229.136H173.18V231.92H171.056ZM171.656 234.368C170.096 233.816 169.04 232.46 169.04 231.08V230.708H171.404V229.916H165.656V230.708H168.056V231.08C168.056 232.628 166.952 234.08 165.344 234.668L165.86 235.448C167.12 234.968 168.116 233.96 168.572 232.712C169.04 233.816 169.964 234.704 171.164 235.136L171.656 234.368ZM170.624 239.12C169.004 239.12 168.02 238.664 168.02 237.884C168.02 237.104 169.004 236.636 170.624 236.636C172.244 236.636 173.228 237.104 173.228 237.884C173.228 238.664 172.244 239.12 170.624 239.12ZM170.624 235.88C168.416 235.88 167.036 236.612 167.036 237.884C167.036 239.156 168.416 239.888 170.624 239.888C172.832 239.888 174.212 239.156 174.212 237.884C174.212 236.612 172.832 235.88 170.624 235.88ZM178.471 232.616H183.967V234.596H178.471V232.616ZM181.711 237.704V235.388H184.927V229.892H183.967V231.812H178.471V229.892H177.499V235.388H180.715V237.704H176.347V238.508H186.103V237.704H181.711ZM110.496 251.174H111.551C112.664 251.174 113.355 251.736 113.355 252.65C113.355 253.477 112.617 254.062 111.586 254.062C110.52 254.062 109.852 253.506 109.77 252.697H108.51C108.592 254.156 109.764 255.158 111.586 255.158C113.35 255.158 114.691 254.145 114.691 252.668C114.691 251.484 113.871 250.705 112.6 250.617V250.594C113.648 250.406 114.34 249.65 114.34 248.596C114.34 247.295 113.174 246.387 111.574 246.387C109.898 246.387 108.779 247.342 108.68 248.824H109.916C109.992 247.992 110.602 247.465 111.516 247.465C112.518 247.465 113.057 247.986 113.057 248.771C113.057 249.568 112.43 250.143 111.516 250.143H110.496V251.174ZM116.689 255.064C117.117 255.064 117.457 254.725 117.457 254.297C117.457 253.869 117.117 253.529 116.689 253.529C116.262 253.529 115.922 253.869 115.922 254.297C115.922 254.725 116.262 255.064 116.689 255.064ZM126.922 250.188C125.374 249.66 124.318 248.316 124.318 246.864V245.676H123.334V246.78C123.334 248.424 122.29 249.888 120.658 250.476L121.174 251.256C122.434 250.776 123.394 249.792 123.838 248.532C124.318 249.636 125.242 250.524 126.406 250.956L126.922 250.188ZM125.638 255.108C124.042 255.108 123.07 254.664 123.07 253.92C123.07 253.164 124.042 252.72 125.638 252.72C127.222 252.72 128.194 253.164 128.194 253.92C128.194 254.664 127.222 255.108 125.638 255.108ZM125.638 251.952C123.442 251.952 122.086 252.66 122.086 253.92C122.086 255.168 123.442 255.876 125.638 255.876C127.822 255.876 129.178 255.168 129.178 253.92C129.178 252.66 127.822 251.952 125.638 251.952ZM129.058 247.908V245.136H128.074V251.652H129.058V248.724H130.654V247.908H129.058ZM137.973 249.444C136.569 249.72 135.345 249.804 133.221 249.804V246.636H136.977V245.844H132.237V250.62H133.077C135.333 250.62 136.605 250.536 138.081 250.236L137.973 249.444ZM134.301 252.576H139.125V254.94H134.301V252.576ZM133.341 255.732H140.097V251.796H133.341V255.732ZM141.693 247.752H140.097V245.112H139.113V251.22H140.097V248.568H141.693V247.752ZM146.734 246.432H145.75V253.092H146.434C147.598 253.092 148.834 253.032 150.286 252.756L150.19 251.904C148.906 252.156 147.766 252.228 146.734 252.24V246.432ZM153.406 245.124V249.504H151.882V245.364H150.958V255.336H151.882V250.32H153.406V255.876H154.354V245.124H153.406ZM157.929 252.864H164.133V255.9H165.129V252.06H157.929V252.864ZM161.841 249.12C161.913 248.868 161.961 248.604 161.961 248.304C161.961 248.016 161.913 247.752 161.841 247.5H164.133V249.12H161.841ZM159.189 250.068C158.145 250.068 157.365 249.336 157.365 248.304C157.365 247.296 158.145 246.564 159.189 246.564C160.245 246.564 161.025 247.296 161.025 248.304C161.025 249.336 160.245 250.068 159.189 250.068ZM164.133 245.136V246.708H161.421C160.917 246.096 160.125 245.724 159.189 245.724C157.605 245.724 156.429 246.792 156.429 248.304C156.429 249.828 157.605 250.908 159.189 250.908C160.125 250.908 160.905 250.536 161.409 249.924H164.133V251.472H165.129V245.124L164.133 245.136ZM167.76 251.678C167.76 253.717 168.299 255.369 169.453 256.805H170.566C169.723 255.82 169.061 253.6 169.061 251.672C169.061 249.744 169.723 247.529 170.566 246.545H169.453C168.299 247.975 167.76 249.627 167.76 251.678ZM174.557 247.932H176.585V247.128H174.569V245.52H173.621V247.128H171.593V247.932H173.621V248.424C173.621 250.188 172.781 252.06 171.329 252.912L171.917 253.656C172.973 253.032 173.729 251.832 174.101 250.464C174.497 251.748 175.253 252.828 176.309 253.416L176.873 252.684C175.433 251.892 174.557 250.14 174.557 248.424V247.932ZM179.657 245.124V249.468H178.241V245.364H177.317V255.36H178.241V250.284H179.657V255.888H180.605V245.124H179.657ZM191.296 245.136H190.312V251.796H191.296V245.136ZM189.076 249.936C187.576 250.188 186.304 250.236 184.06 250.236V248.832H187.912V248.052H184.06V246.708H188.212V245.916H183.076V251.028H183.952C186.304 251.028 187.612 250.98 189.184 250.716L189.076 249.936ZM187.72 255.108C186.088 255.108 185.092 254.664 185.092 253.92C185.092 253.152 186.088 252.72 187.72 252.72C189.364 252.72 190.36 253.152 190.36 253.92C190.36 254.664 189.364 255.108 187.72 255.108ZM187.72 251.952C185.488 251.952 184.12 252.66 184.12 253.92C184.12 255.168 185.488 255.876 187.72 255.876C189.964 255.876 191.332 255.168 191.332 253.92C191.332 252.66 189.964 251.952 187.72 251.952ZM195.015 246.432H194.031V253.092H194.715C195.879 253.092 197.115 253.032 198.567 252.756L198.471 251.904C197.187 252.156 196.047 252.228 195.015 252.24V246.432ZM201.687 245.124V249.504H200.163V245.364H199.239V255.336H200.163V250.32H201.687V255.876H202.635V245.124H201.687ZM209.402 255.12C207.71 255.12 206.714 254.7 206.714 253.968C206.714 253.236 207.71 252.816 209.402 252.816C211.082 252.816 212.09 253.236 212.09 253.968C212.09 254.7 211.082 255.12 209.402 255.12ZM209.402 252.048C207.098 252.048 205.718 252.732 205.718 253.968C205.718 255.204 207.098 255.876 209.402 255.876C211.718 255.876 213.086 255.204 213.086 253.968C213.086 252.732 211.718 252.048 209.402 252.048ZM207.914 249.192C208.358 249.264 208.862 249.312 209.402 249.312C209.954 249.312 210.458 249.264 210.902 249.192V250.452H207.914V249.192ZM206.63 247.32C206.63 246.54 207.686 246.084 209.402 246.084C211.118 246.084 212.174 246.54 212.174 247.32C212.174 248.088 211.118 248.556 209.402 248.556C207.686 248.556 206.63 248.088 206.63 247.32ZM211.874 250.452V248.928C212.702 248.592 213.182 248.04 213.182 247.32C213.182 246.06 211.742 245.316 209.402 245.316C207.074 245.316 205.622 246.06 205.622 247.32C205.622 248.052 206.09 248.592 206.942 248.94V250.452H204.53V251.244H214.274V250.452H211.874ZM216.469 256.74L217.266 253.646H215.988L215.461 256.74H216.469ZM221.678 253.104H228.086V255.888H229.07V252.3H221.678V253.104ZM225.902 250.416V248.952H229.178V248.148H222.83V245.364H221.846V248.952H224.918V250.416H220.538V251.208H230.282V250.416H225.902ZM232.477 250.428C233.737 250.116 234.697 249.396 235.153 248.448C235.621 249.324 236.557 249.972 237.793 250.272L238.189 249.504C236.665 249.156 235.621 248.232 235.621 247.152V247.128H237.997V246.348H235.621V245.148H234.637V246.348H232.273V247.128H234.649V247.152C234.649 248.304 233.605 249.288 232.057 249.648L232.477 250.428ZM238.657 250.824C236.305 251.16 233.605 251.172 231.553 251.172L231.685 252C232.585 252 233.605 251.988 234.661 251.952V255.576H235.645V251.892C236.665 251.832 237.721 251.724 238.729 251.556L238.657 250.824ZM239.425 245.136V255.9H240.409V245.136H239.425ZM244.872 247.08H246.636V252.312C246.048 252.336 245.448 252.36 244.872 252.372V247.08ZM247.596 247.08H248.748V246.288H242.76V247.08H243.912V252.384C243.408 252.396 242.928 252.396 242.484 252.396L242.604 253.224C244.5 253.224 247.056 253.188 249.312 252.828L249.24 252.096C248.712 252.168 248.16 252.216 247.596 252.252V247.08ZM252.672 249.432H250.896V245.136H249.912V255.888H250.896V250.248H252.672V249.432ZM262.488 245.124H261.504V250.644H262.488V245.124ZM254.856 247.908C254.856 246.972 255.636 246.312 256.68 246.312C257.736 246.312 258.504 246.972 258.504 247.908C258.504 248.832 257.736 249.492 256.68 249.492C255.636 249.492 254.856 248.832 254.856 247.908ZM259.464 247.908C259.464 246.48 258.288 245.508 256.68 245.508C255.072 245.508 253.908 246.48 253.908 247.908C253.908 249.324 255.072 250.284 256.68 250.284C258.288 250.284 259.464 249.324 259.464 247.908ZM256.512 254.964V253.776H262.488V251.172H255.516V251.952H261.516V253.044H255.54V255.744H262.848V254.964H256.512ZM267.088 251.678C267.088 249.105 266.256 247.605 265.395 246.545H264.281C264.861 247.219 265.787 249.141 265.787 251.672C265.787 254.203 264.867 256.125 264.281 256.805H265.395C266.256 255.738 267.088 254.238 267.088 251.678Z" fill="#5C5C5C"/>
<rect y="267" width="327" height="1" fill="#CCCCCC"/>
<rect y="308" width="327" height="1" fill="#CCCCCC"/>
<path d="M16.2834 285.616H21.7794V287.596H16.2834V285.616ZM19.5234 290.704V288.388H22.7394V282.892H21.7794V284.812H16.2834V282.892H15.3114V288.388H18.5274V290.704H14.1594V291.508H23.9154V290.704H19.5234ZM30.0465 283.348C31.6905 283.348 32.8065 283.948 32.8065 284.896C32.8065 285.844 31.6905 286.456 30.0465 286.456C28.4145 286.456 27.2985 285.844 27.2985 284.896C27.2985 283.948 28.4145 283.348 30.0465 283.348ZM30.0465 287.248C32.2905 287.248 33.8145 286.336 33.8145 284.896C33.8145 283.456 32.2905 282.556 30.0465 282.556C27.8145 282.556 26.2905 283.456 26.2905 284.896C26.2905 286.336 27.8145 287.248 30.0465 287.248ZM34.9425 288.256H25.1985V289.06H27.7065V292.888H28.7025V289.06H31.4025V292.888H32.3985V289.06H34.9425V288.256ZM37.2422 289.188C37.6816 289.188 38.0215 288.848 38.0215 288.402C38.0215 287.963 37.6816 287.623 37.2422 287.623C36.8086 287.623 36.4629 287.963 36.4629 288.402C36.4629 288.848 36.8086 289.188 37.2422 289.188ZM47.3428 282.124V292.912H48.3268V282.124H47.3428ZM42.6508 282.952C41.0548 282.952 39.9148 284.416 39.9148 286.708C39.9148 289 41.0548 290.464 42.6508 290.464C44.2468 290.464 45.3868 289 45.3868 286.708C45.3868 284.416 44.2468 282.952 42.6508 282.952ZM42.6508 283.84C43.6948 283.84 44.4388 284.968 44.4388 286.708C44.4388 288.46 43.6948 289.588 42.6508 289.588C41.5948 289.588 40.8508 288.46 40.8508 286.708C40.8508 284.968 41.5948 283.84 42.6508 283.84ZM55.4179 292.12C53.7259 292.12 52.7299 291.7 52.7299 290.968C52.7299 290.236 53.7259 289.816 55.4179 289.816C57.0979 289.816 58.1059 290.236 58.1059 290.968C58.1059 291.7 57.0979 292.12 55.4179 292.12ZM55.4179 289.048C53.1139 289.048 51.7339 289.732 51.7339 290.968C51.7339 292.204 53.1139 292.876 55.4179 292.876C57.7339 292.876 59.1019 292.204 59.1019 290.968C59.1019 289.732 57.7339 289.048 55.4179 289.048ZM53.9299 286.192C54.3739 286.264 54.8779 286.312 55.4179 286.312C55.9699 286.312 56.4739 286.264 56.9179 286.192V287.452H53.9299V286.192ZM52.6459 284.32C52.6459 283.54 53.7019 283.084 55.4179 283.084C57.1339 283.084 58.1899 283.54 58.1899 284.32C58.1899 285.088 57.1339 285.556 55.4179 285.556C53.7019 285.556 52.6459 285.088 52.6459 284.32ZM57.8899 287.452V285.928C58.7179 285.592 59.1979 285.04 59.1979 284.32C59.1979 283.06 57.7579 282.316 55.4179 282.316C53.0899 282.316 51.6379 283.06 51.6379 284.32C51.6379 285.052 52.1059 285.592 52.9579 285.94V287.452H50.5459V288.244H60.2899V287.452H57.8899ZM64.6704 283.288V284.08H68.7144C68.5104 286.636 67.0704 288.7 64.1784 290.08L64.7064 290.884C68.2824 289.132 69.7104 286.396 69.7104 283.288H64.6704ZM71.8824 282.124V292.888H72.8664V282.124H71.8824ZM75.5295 282.964V283.768H79.4895C79.2855 285.664 77.6295 287.188 75.0975 287.98L75.4935 288.76C78.5895 287.788 80.5455 285.748 80.5455 282.964H75.5295ZM77.7015 289.192H76.7175V292.648H83.8935V291.844H77.7015V289.192ZM83.4255 285.4V282.136H82.4415V289.996H83.4255V286.216H85.0095V285.4H83.4255Z" fill="#5C5C5C"/>
<rect x="99" y="268" width="1" height="40" fill="#CCCCCC"/>
<path d="M110.76 277.616H116.256V279.596H110.76V277.616ZM114 282.704V280.388H117.216V274.892H116.256V276.812H110.76V274.892H109.788V280.388H113.004V282.704H108.636V283.508H118.392V282.704H114ZM125.927 275.252H123.299V274.016H122.315V275.252H119.687V276.044H125.927V275.252ZM121.247 278.516C121.247 277.82 121.895 277.34 122.807 277.34C123.719 277.34 124.367 277.82 124.367 278.516C124.367 279.212 123.719 279.692 122.807 279.692C121.895 279.692 121.247 279.212 121.247 278.516ZM125.291 278.516C125.291 277.364 124.259 276.596 122.807 276.596C121.343 276.596 120.311 277.364 120.311 278.516C120.311 279.668 121.343 280.424 122.807 280.424C124.259 280.424 125.291 279.668 125.291 278.516ZM122.507 281.996H127.583V283.952H122.507V281.996ZM121.547 284.744H128.543V281.216H121.547V284.744ZM127.547 274.136V277.4H125.759V278.204H127.547V280.64H128.543V274.136H127.547ZM139.368 279.188C137.82 278.66 136.764 277.316 136.764 275.864V274.676H135.78V275.78C135.78 277.424 134.736 278.888 133.104 279.476L133.62 280.256C134.88 279.776 135.84 278.792 136.284 277.532C136.764 278.636 137.688 279.524 138.852 279.956L139.368 279.188ZM138.084 284.108C136.488 284.108 135.516 283.664 135.516 282.92C135.516 282.164 136.488 281.72 138.084 281.72C139.668 281.72 140.64 282.164 140.64 282.92C140.64 283.664 139.668 284.108 138.084 284.108ZM138.084 280.952C135.888 280.952 134.532 281.66 134.532 282.92C134.532 284.168 135.888 284.876 138.084 284.876C140.268 284.876 141.624 284.168 141.624 282.92C141.624 281.66 140.268 280.952 138.084 280.952ZM141.504 276.908V274.136H140.52V280.652H141.504V277.724H143.1V276.908H141.504ZM150.419 278.444C149.015 278.72 147.791 278.804 145.667 278.804V275.636H149.423V274.844H144.683V279.62H145.523C147.779 279.62 149.051 279.536 150.527 279.236L150.419 278.444ZM146.747 281.576H151.571V283.94H146.747V281.576ZM145.787 284.732H152.543V280.796H145.787V284.732ZM154.139 276.752H152.543V274.112H151.559V280.22H152.543V277.568H154.139V276.752ZM158.747 282.284H165.215V284.9H166.199V281.492H158.747V282.284ZM159.875 275.348H165.179V277.436H159.875V275.348ZM163.031 279.584V278.216H166.151V274.568H158.915V278.216H162.047V279.584H157.655V280.376H167.399V279.584H163.031ZM175.054 279.38C173.494 278.828 172.438 277.472 172.438 276.092V275.66H174.802V274.856H169.054V275.66H171.454V276.092C171.454 277.616 170.338 279.056 168.742 279.62L169.258 280.4C170.518 279.932 171.502 278.948 171.958 277.712C172.438 278.828 173.362 279.716 174.562 280.148L175.054 279.38ZM170.374 281.948H176.578V284.9H177.574V281.156H170.374V281.948ZM176.578 274.124V276.932H174.478V277.736H176.578V280.568H177.574V274.124H176.578ZM188.411 277.976C186.971 278.264 185.723 278.348 183.635 278.348V275.54H187.415V274.748H182.663V279.14H183.491C185.711 279.14 187.019 279.068 188.531 278.756L188.411 277.976ZM184.691 282.74H190.535V280.088H183.695V280.868H189.563V281.996H183.731V284.744H190.931V283.952H184.691V282.74ZM190.535 276.392V274.124H189.551V279.536H190.535V277.196H192.131V276.392H190.535ZM201.094 280.496H202.09V274.136H201.094V276.416H198.754V277.22H201.094V280.496ZM199.534 279.224C197.962 278.672 196.918 277.34 196.918 275.804V274.736H195.934V275.84C195.934 277.484 194.866 278.924 193.21 279.512L193.726 280.316C195.022 279.824 195.994 278.852 196.45 277.58C196.918 278.696 197.83 279.548 199.006 279.992L199.534 279.224ZM198.538 284.096C196.918 284.096 195.934 283.628 195.934 282.848C195.934 282.056 196.918 281.588 198.538 281.588C200.158 281.588 201.142 282.056 201.142 282.848C201.142 283.628 200.158 284.096 198.538 284.096ZM198.538 280.82C196.33 280.82 194.95 281.552 194.95 282.848C194.95 284.132 196.33 284.876 198.538 284.876C200.746 284.876 202.126 284.132 202.126 282.848C202.126 281.552 200.746 280.82 198.538 280.82ZM209.121 275.048C210.885 275.048 211.893 275.456 211.893 276.176C211.893 276.896 210.885 277.304 209.121 277.304C207.357 277.304 206.349 276.896 206.349 276.176C206.349 275.456 207.357 275.048 209.121 275.048ZM209.121 278.036C211.485 278.036 212.901 277.388 212.901 276.176C212.901 274.964 211.485 274.304 209.121 274.304C206.757 274.304 205.341 274.964 205.341 276.176C205.341 277.388 206.757 278.036 209.121 278.036ZM206.421 282.908H212.745V280.484H205.425V281.228H211.773V282.188H205.461V284.768H213.069V284H206.421V282.908ZM204.249 278.768V279.56H213.993V278.768H204.249ZM221.266 275.444C222.31 275.444 223.054 276.008 223.054 276.848C223.054 277.688 222.31 278.252 221.266 278.252C220.21 278.252 219.466 277.688 219.466 276.848C219.466 276.008 220.21 275.444 221.266 275.444ZM221.266 279.056C222.862 279.056 224.002 278.156 224.002 276.848C224.002 275.528 222.862 274.628 221.266 274.628C219.658 274.628 218.518 275.528 218.518 276.848C218.518 278.156 219.658 279.056 221.266 279.056ZM224.806 279.584C222.442 279.944 219.718 279.968 217.714 279.968L217.846 280.796C218.734 280.796 219.754 280.784 220.822 280.736V284.552H221.806V280.676C222.826 280.616 223.87 280.496 224.89 280.316L224.806 279.584ZM225.586 274.136V284.9H226.57V274.136H225.586ZM235.161 275.444H232.473V274.124H231.489V275.444H228.813V276.236H235.161V275.444ZM230.349 278.828C230.349 278.084 231.009 277.604 231.981 277.604C232.953 277.604 233.625 278.084 233.625 278.828C233.625 279.584 232.953 280.064 231.981 280.064C231.009 280.064 230.349 279.584 230.349 278.828ZM234.561 278.828C234.561 277.628 233.505 276.836 231.981 276.836C230.457 276.836 229.413 277.628 229.413 278.828C229.413 280.04 230.457 280.832 231.981 280.832C233.505 280.832 234.561 280.04 234.561 278.828ZM231.417 281.564H230.433V284.648H237.609V283.844H231.417V281.564ZM237.129 277.676V274.124H236.145V282.2H237.129V278.504H238.713V277.676H237.129ZM242.889 275.288V276.08H246.933C246.729 278.636 245.289 280.7 242.397 282.08L242.925 282.884C246.501 281.132 247.929 278.396 247.929 275.288H242.889ZM250.101 274.124V284.888H251.085V274.124H250.101ZM253.748 274.964V275.768H257.708C257.504 277.664 255.848 279.188 253.316 279.98L253.712 280.76C256.808 279.788 258.764 277.748 258.764 274.964H253.748ZM255.92 281.192H254.936V284.648H262.112V283.844H255.92V281.192ZM261.644 277.4V274.136H260.66V281.996H261.644V278.216H263.228V277.4H261.644ZM271.641 284.12C269.937 284.12 268.941 283.7 268.941 282.944C268.941 282.188 269.937 281.768 271.641 281.768C273.321 281.768 274.317 282.188 274.317 282.944C274.317 283.7 273.321 284.12 271.641 284.12ZM271.641 281C269.337 281 267.945 281.696 267.945 282.944C267.945 284.192 269.337 284.888 271.641 284.888C273.921 284.888 275.313 284.192 275.313 282.944C275.313 281.696 273.921 281 271.641 281ZM272.133 279.44V278.192H275.373V277.4H268.977V275.408H275.301V274.616H267.993V278.192H271.149V279.44H266.769V280.232H276.513V279.44H272.133ZM278.972 277.532C278.972 276.476 279.764 275.732 280.82 275.732C281.876 275.732 282.668 276.476 282.668 277.532C282.668 278.588 281.876 279.332 280.82 279.332C279.764 279.332 278.972 278.588 278.972 277.532ZM283.628 277.532C283.628 275.972 282.428 274.88 280.82 274.88C279.212 274.88 278.012 275.972 278.012 277.532C278.012 279.092 279.212 280.184 280.82 280.184C282.428 280.184 283.628 279.092 283.628 277.532ZM280.448 281.24H279.464V284.648H286.64V283.844H280.448V281.24ZM286.16 277.4V274.124H285.176V282.044H286.16V278.216H287.744V277.4H286.16ZM293.408 277.616H298.904V279.596H293.408V277.616ZM296.648 282.704V280.388H299.864V274.892H298.904V276.812H293.408V274.892H292.436V280.388H295.652V282.704H291.284V283.508H301.04V282.704H296.648ZM307.172 275.348C308.816 275.348 309.932 275.948 309.932 276.896C309.932 277.844 308.816 278.456 307.172 278.456C305.54 278.456 304.424 277.844 304.424 276.896C304.424 275.948 305.54 275.348 307.172 275.348ZM307.172 279.248C309.416 279.248 310.94 278.336 310.94 276.896C310.94 275.456 309.416 274.556 307.172 274.556C304.94 274.556 303.416 275.456 303.416 276.896C303.416 278.336 304.94 279.248 307.172 279.248ZM312.068 280.256H302.324V281.06H304.832V284.888H305.828V281.06H308.528V284.888H309.524V281.06H312.068V280.256ZM117.792 291.36H114V290.064H113.004V291.36H109.14V292.152H117.792V291.36ZM115.968 294.564C115.968 295.224 115.08 295.608 113.508 295.608C111.936 295.608 111.024 295.224 111.024 294.564C111.024 293.904 111.936 293.52 113.508 293.52C115.08 293.52 115.968 293.904 115.968 294.564ZM110.004 294.564C110.004 295.716 111.312 296.352 113.508 296.352C115.68 296.352 116.988 295.716 116.988 294.564C116.988 293.412 115.68 292.764 113.508 292.764C111.312 292.764 110.004 293.412 110.004 294.564ZM118.392 297.108H108.636V297.912H113.004V300.9H114V297.912H118.392V297.108ZM124.369 292.08H126.133V297.312C125.545 297.336 124.945 297.36 124.369 297.372V292.08ZM127.093 292.08H128.245V291.288H122.257V292.08H123.409V297.384C122.905 297.396 122.425 297.396 121.981 297.396L122.101 298.224C123.997 298.224 126.553 298.188 128.809 297.828L128.737 297.096C128.209 297.168 127.657 297.216 127.093 297.252V292.08ZM132.169 294.432H130.393V290.136H129.409V300.888H130.393V295.248H132.169V294.432ZM133.788 291.288V292.08H137.832C137.628 294.636 136.188 296.7 133.296 298.08L133.824 298.884C137.4 297.132 138.828 294.396 138.828 291.288H133.788ZM141 290.124V300.888H141.984V290.124H141Z" fill="#5C5C5C"/>
</svg>
